<?xml version="1.0" encoding="utf-8"?>
<!-- Generator: Adobe Illustrator 16.0.0, SVG Export Plug-In . SVG Version: 6.00 Build 0)  -->
<!DOCTYPE svg PUBLIC "-//W3C//DTD SVG 1.1//EN" "http://www.w3.org/Graphics/SVG/1.1/DTD/svg11.dtd">
<svg version="1.1" id="Layer_1" xmlns="http://www.w3.org/2000/svg" xmlns:xlink="http://www.w3.org/1999/xlink" x="0px" y="0px"
	 width="1024px" height="300px" viewBox="0 0 1024 300" style="enable-background:new 0 0 1024 300;" xml:space="preserve">
<style type="text/css">
<![CDATA[
	.st0{clip-path:url(#SVGID_6_);fill:#FFFFFF;}
	.st1{clip-path:url(#SVGID_6_);fill:none;stroke:#FFFFFF;stroke-width:2;stroke-miterlimit:10;}
	.st2{fill:#AFC8D3;}
	.st3{fill:#E10F21;stroke:#FFFFFF;stroke-width:2;stroke-miterlimit:10;}
	.st4{fill:none;stroke:#FFFFFF;stroke-width:2;stroke-miterlimit:10;}
	.st5{fill:#88BDD8;}
	.st6{fill:#FCD831;stroke:#FFFFFF;stroke-width:2;stroke-miterlimit:10;}
	.st7{fill:#1F2347;}
	.st8{fill:none;stroke:#FFFFFF;stroke-miterlimit:10;}
	.st9{fill:#2D3181;stroke:#FFFFFF;stroke-miterlimit:10;}
	.st10{fill:#E10F21;stroke:#040506;stroke-width:2;stroke-miterlimit:10;}
	.st11{fill:#2896D1;}
	.st12{clip-path:url(#SVGID_6_);}
	.st13{fill:none;stroke:#040506;stroke-width:2;stroke-miterlimit:10;}
	.st14{fill:url(#SVGID_1_);}
	.st15{fill:url(#SVGID_2_);}
	.st16{fill:url(#SVGID_3_);}
	.st17{fill:url(#SVGID_4_);}
	.st18{fill:url(#SVGID_7_);}
	.st19{fill:url(#SVGID_8_);}
	.st20{fill:url(#SVGID_9_);}
	.st21{fill:#FEFEFF;}
	.st22{fill:#FFFFFF;}
	.st23{fill:#CC2328;}
	.st24{fill-rule:evenodd;clip-rule:evenodd;fill:#FEFEFF;}
	.st25{fill:#FFFFFF;stroke:#FFFFFF;stroke-miterlimit:10;}
	.st26{fill:#040506;}
	.st27{fill:#3B5B9B;stroke:#FFFFFF;stroke-miterlimit:10;}
	.st28{fill:url(#SVGID_10_);}
	.st29{fill:url(#SVGID_11_);}
	.st30{fill:url(#SVGID_12_);}
	.st31{fill:url(#SVGID_15_);}
	.st32{fill:#3E97D0;}
	.st33{clip-path:url(#SVGID_14_);}
	.st34{fill-rule:evenodd;clip-rule:evenodd;fill:#332C82;}
]]>
</style>
<linearGradient id="SVGID_1_" gradientUnits="userSpaceOnUse" x1="-25.5947" y1="-36.6328" x2="1155.4092" y2="373.3679">
	<stop  offset="0" style="stop-color:#FFFFFF"/>
	<stop  offset="0.6633" style="stop-color:#379245"/>
	<stop  offset="1" style="stop-color:#248E3F"/>
</linearGradient>
<rect class="st14" width="1024" height="300"/>
<g>
	
		<linearGradient id="SVGID_2_" gradientUnits="userSpaceOnUse" x1="360.8672" y1="219.666" x2="377.937" y2="219.666" gradientTransform="matrix(0.9947 -0.1032 0.1238 1.1932 -18.9961 1.6689)">
		<stop  offset="0" style="stop-color:#878787"/>
		<stop  offset="0.3534" style="stop-color:#FAFAFA"/>
		<stop  offset="0.4438" style="stop-color:#E9E9E9"/>
		<stop  offset="0.8438" style="stop-color:#9D9D9C"/>
		<stop  offset="1" style="stop-color:#575756"/>
	</linearGradient>
	<polygon class="st15" points="391.9,299.7 374.8,300 359.4,151.6 376.3,149.9 	"/>
</g>
<linearGradient id="SVGID_3_" gradientUnits="userSpaceOnUse" x1="51.9326" y1="228.5781" x2="71.333" y2="228.5781">
	<stop  offset="0" style="stop-color:#878787"/>
	<stop  offset="0.3534" style="stop-color:#FAFAFA"/>
	<stop  offset="0.4438" style="stop-color:#E9E9E9"/>
	<stop  offset="0.8438" style="stop-color:#9D9D9C"/>
	<stop  offset="1" style="stop-color:#575756"/>
</linearGradient>
<rect x="51.9" y="157.2" class="st16" width="19.4" height="142.8"/>
<g>
	
		<linearGradient id="SVGID_4_" gradientUnits="userSpaceOnUse" x1="158.7622" y1="236.2812" x2="177.1997" y2="236.2812" gradientTransform="matrix(0.9948 -0.1011 0.1011 0.9948 -21.1221 16.4619)">
		<stop  offset="0" style="stop-color:#878787"/>
		<stop  offset="0.3534" style="stop-color:#FAFAFA"/>
		<stop  offset="0.4438" style="stop-color:#E9E9E9"/>
		<stop  offset="0.8438" style="stop-color:#9D9D9C"/>
		<stop  offset="1" style="stop-color:#575756"/>
	</linearGradient>
	<polygon class="st17" points="185.8,300 167.3,300 154,169.1 172.1,167.2 	"/>
	<g>
		<defs>
			<path id="SVGID_5_" d="M176.2,68c32.3,9.6,50.8,43.6,41.2,76c-9.6,32.4-43.6,50.8-76,41.2c-32.4-9.6-50.8-43.6-41.2-76
				C109.8,76.8,143.8,58.3,176.2,68z"/>
		</defs>
		<clipPath id="SVGID_6_">
			<use xlink:href="#SVGID_5_"  style="overflow:visible;"/>
		</clipPath>
		<g class="st12">
			
				<linearGradient id="SVGID_7_" gradientUnits="userSpaceOnUse" x1="127.8911" y1="128.0566" x2="207.8516" y2="128.0566" gradientTransform="matrix(0.9948 -0.1011 0.1011 0.9948 -21.1221 16.4619)">
				<stop  offset="0" style="stop-color:#F4C62C"/>
				<stop  offset="3.106162e-02" style="stop-color:#F3BE2C"/>
				<stop  offset="8.621953e-02" style="stop-color:#F0A92C"/>
				<stop  offset="0.159" style="stop-color:#EB832B"/>
				<stop  offset="0.2318" style="stop-color:#E65328"/>
				<stop  offset="0.5046" style="stop-color:#E1192C"/>
				<stop  offset="0.7561" style="stop-color:#C33278"/>
				<stop  offset="0.9" style="stop-color:#79549B;stop-opacity:0.9"/>
			</linearGradient>
			<path class="st18" d="M201.1,147.9c0.8,8.2-5.2,15.6-13.4,16.4l-49.7,5.1c-8.2,0.8-15.6-5.2-16.4-13.4l-5.1-50.1
				c-0.8-8.2,5.2-15.6,13.4-16.4l49.7-5.1c8.2-0.8,15.6,5.2,16.4,13.4L201.1,147.9z"/>
			<path class="st4" d="M201.1,147.9c0.8,8.2-5.2,15.6-13.4,16.4l-49.7,5.1c-8.2,0.8-15.6-5.2-16.4-13.4l-5.1-50.1
				c-0.8-8.2,5.2-15.6,13.4-16.4l49.7-5.1c8.2-0.8,15.6,5.2,16.4,13.4L201.1,147.9z"/>
		</g>
		<path class="st1" d="M176.5,127.8c1,9.6-6,18.2-15.7,19.2c-9.6,1-18.2-6-19.2-15.7c-1-9.6,6-18.2,15.7-19.2
			C167,111.1,175.6,118.2,176.5,127.8z"/>
		<circle class="st1" cx="159.1" cy="129.6" r="25"/>
		<path class="st0" d="M182.6,100c0.1,1.3-0.8,2.5-2.1,2.6c-1.3,0.1-2.5-0.8-2.6-2.1c-0.1-1.3,0.8-2.5,2.1-2.6
			C181.3,97.8,182.5,98.7,182.6,100z"/>
	</g>
</g>
<g>
	
		<linearGradient id="SVGID_8_" gradientUnits="userSpaceOnUse" x1="159.7188" y1="276.0527" x2="169.6523" y2="276.0527" gradientTransform="matrix(1 -3.400000e-03 3.400000e-03 1 -59.4204 -5.3452)">
		<stop  offset="0" style="stop-color:#878787"/>
		<stop  offset="0.3534" style="stop-color:#FAFAFA"/>
		<stop  offset="0.4438" style="stop-color:#E9E9E9"/>
		<stop  offset="0.8438" style="stop-color:#9D9D9C"/>
	</linearGradient>
	<polygon class="st19" points="111.3,300 102,299.6 101.1,240.3 111.1,240.3 	"/>
	<path class="st9" d="M165.4,231.8c0,4.6-4.6,8.3-10.3,8.3l-96.3,0.3c-5.7,0-10.4-3.7-10.4-8.3L48.3,190c0-4.6,4.6-8.3,10.3-8.3
		l96.3-0.3c5.7,0,10.4,3.7,10.4,8.3L165.4,231.8z"/>
	<g>
		<path class="st22" d="M63.3,192.4l7.7,0l0.1,27.5l13.5,0l0,6.4l-21.2,0.1L63.3,192.4z"/>
		<path class="st22" d="M96.7,192.3l0.1,33.9l-7.7,0L89,192.4L96.7,192.3z"/>
		<path class="st22" d="M103.4,192.3l7.6,0l0.1,15l0.2,0c0.8-1.3,1.6-2.5,2.3-3.7l7.7-11.3l9.4,0l-11.2,14.5l11.9,19.5l-9,0
			l-8.4-14.6l-2.9,3.6l0,11.1l-7.6,0L103.4,192.3z"/>
		<path class="st22" d="M154.6,211.7l-12.5,0l0,8.1l14,0l0,6.3l-21.7,0.1l-0.1-33.9l21-0.1l0,6.3l-13.2,0l0,7.1l12.5,0L154.6,211.7z
			"/>
	</g>
</g>
<linearGradient id="SVGID_9_" gradientUnits="userSpaceOnUse" x1="456.3647" y1="201.3809" x2="472.939" y2="201.3809" gradientTransform="matrix(0.9977 6.710000e-02 -9.079999e-02 1.3504 17.0894 -85.3271)">
	<stop  offset="0" style="stop-color:#878787"/>
	<stop  offset="0.3534" style="stop-color:#FAFAFA"/>
	<stop  offset="0.4438" style="stop-color:#E9E9E9"/>
	<stop  offset="0.8438" style="stop-color:#9D9D9C"/>
	<stop  offset="0.9973" style="stop-color:#575756"/>
</linearGradient>
<polygon class="st20" points="465.2,299.7 448.6,300 459.7,134.5 476.2,135.6 "/>
<g>
	<linearGradient id="SVGID_10_" gradientUnits="userSpaceOnUse" x1="413.6587" y1="269.3398" x2="422.1943" y2="269.3398">
		<stop  offset="0" style="stop-color:#878787"/>
		<stop  offset="0.3534" style="stop-color:#FAFAFA"/>
		<stop  offset="0.4438" style="stop-color:#E9E9E9"/>
		<stop  offset="0.8438" style="stop-color:#9D9D9C"/>
	</linearGradient>
	<rect x="413.7" y="238.7" class="st28" width="8.5" height="61.3"/>
	<g>
		<path class="st6" d="M454.9,202.8c0,21.4-17.3,38.7-38.7,38.7c-21.4,0-38.7-17.3-38.7-38.7c0-21.4,17.3-38.7,38.7-38.7
			C437.6,164.1,454.9,181.5,454.9,202.8z"/>
		<g>
			<g>
				<path class="st26" d="M395.4,188.7c3.9,2.1,7.7,4.1,11.6,6.2c0-1.1,0-2.2,0-3.2c-3.9,1.9-7.7,3.9-11.6,5.8
					c-2.2,1.1-0.3,4.3,1.9,3.2c3.9-1.9,7.7-3.9,11.6-5.8c1.2-0.6,1.2-2.6,0-3.2c-3.9-2.1-7.7-4.1-11.6-6.2
					C395.1,184.3,393.2,187.6,395.4,188.7L395.4,188.7z"/>
			</g>
		</g>
		<g>
			<g>
				<path class="st26" d="M439.2,197.5c-3.9-2.1-7.7-4.1-11.6-6.2c0,1.1,0,2.2,0,3.2c3.9-1.9,7.7-3.9,11.6-5.8
					c2.2-1.1,0.3-4.3-1.9-3.2c-3.9,1.9-7.7,3.9-11.6,5.8c-1.2,0.6-1.2,2.6,0,3.2c3.9,2.1,7.7,4.1,11.6,6.2
					C439.4,201.9,441.3,198.7,439.2,197.5L439.2,197.5z"/>
			</g>
		</g>
		<path class="st13" d="M403.4,222.8c-0.3-0.3-0.7-0.7-1-1.1c-2.3-2.6-4.7-5.8-7.1-9.9h43.8c0,0-2.5,4.8-6.6,9.5"/>
		<path class="st10" d="M432.5,221.4c0,0-19.5-4.9-29.1,1.5h0C415.4,235.1,426,228.5,432.5,221.4"/>
	</g>
</g>
<g>
	<path class="st7" d="M622.1,203.4c0,2.4-0.8,4.3-2.4,5.7c-1.6,1.4-3.8,2.1-6.7,2.1c-2.4,0-4.2-0.4-5.4-1.3c-1.3-0.9-1.9-2-1.9-3.5
		v-2.1h0.1c1.9,1.7,4.2,2.6,6.7,2.6c1.7,0,3-0.3,3.7-0.8c0.7-0.5,1.1-1.3,1.1-2.4c0-0.9-0.3-1.5-1-2c-0.7-0.5-2.3-0.9-4.7-1.5
		c-4.3-0.9-6.4-3-6.4-6.2c0-2.1,0.8-3.9,2.5-5.5c1.6-1.5,3.8-2.3,6.5-2.3c2.5,0,4.4,0.4,5.5,1.3c1.1,0.9,1.7,1.9,1.7,3.1v2.2h-0.1
		c-1.5-1.6-3.5-2.4-6.2-2.4c-3.4,0-5.1,1-5.1,3.1c0,0.7,0.4,1.4,1.2,1.8c0.8,0.5,2.2,1,4.4,1.4C620,197.9,622.1,200.1,622.1,203.4z"
		/>
	<path class="st7" d="M641.9,198.8c0,1.7-0.7,2.9-2.1,3.6c-1.4,0.7-3.6,1-6.8,1H630c0.2,1.2,0.7,2.1,1.7,2.8c1,0.7,2.2,1.1,3.6,1.1
		c2.6,0,4.5-0.6,5.8-1.8h0.2v1.5c0,2.9-2.3,4.3-6.8,4.3c-2.4,0-4.6-0.9-6.5-2.7c-1.9-1.8-2.8-4-2.8-6.8c0-3.1,0.9-5.6,2.6-7.5
		c1.7-1.9,3.9-2.8,6.7-2.8c2.1,0,3.8,0.7,5.3,2C641.1,194.9,641.9,196.7,641.9,198.8z M637.5,198.3c0-0.9-0.3-1.6-0.9-2.1
		c-0.6-0.5-1.5-0.7-2.6-0.7c-1.1,0-2,0.4-2.8,1.2c-0.7,0.8-1.1,1.7-1.2,2.9l0,0.6h2.1c2.2,0,3.6-0.1,4.4-0.4
		C637.1,199.4,637.5,199,637.5,198.3z"/>
	<path class="st7" d="M656.9,191.6h0.2c2.9,0.1,4.7,1,5.5,2.7c0.2,0.4,0.2,0.8,0.2,1.3v1.5c0,0.1,0,0.1-0.1,0.1h-0.4
		c-0.1,0-0.4-0.2-1.1-0.6c-1.4-0.6-2.9-0.9-4.5-0.9h-0.1c-2.2,0-3.9,0.9-5.1,2.8c-0.5,0.9-0.7,1.8-0.7,2.8v0.2c0,2.7,1,4.5,2.9,5.4
		c0.9,0.4,1.9,0.6,3,0.6c1.4,0,2-0.4,2-1.2c0-0.3,0-0.6,0-1v-0.4c0-1.1-0.1-2.3-0.3-3.4l0.1,0h1.7c1,0,1.7,0.1,2.1,0.4
		c0.7,0.5,1,1,1,1.7v0.7c0,0.6,0,1.2,0,2c0,2.2-0.8,3.7-2.5,4.5c-1.1,0.5-2.5,0.8-3.9,0.8H656c-2.8,0-5.3-1-7.4-3
		c-1.7-1.8-2.6-4-2.6-6.5v-0.3c0-3,1.2-5.5,3.6-7.5C651.8,192.4,654.2,191.6,656.9,191.6z"/>
	<path class="st7" d="M682.6,202.4c0,5.9-2.8,8.9-8.3,8.9c-2.4,0-4.4-0.8-6-2.3c-1.6-1.5-2.4-3.6-2.4-6.3v-10.8h0.9
		c2.6,0,3.9,1.1,3.9,3.4v6.9c0,1.7,0.4,2.9,1.1,3.7c0.7,0.8,1.6,1.2,2.8,1.2c1,0,1.8-0.4,2.4-1.1c0.6-0.7,0.9-1.9,0.9-3.4v-10.6h0.9
		c2.6,0,3.9,1.1,3.9,3.4V202.4z"/>
	<path class="st7" d="M692,185.9c0,0,0.1,0.1,0.4,0.4c0.3,0.3,0.4,0.8,0.4,1.5c0,0.8-0.3,1.4-0.8,1.9s-1.2,0.8-1.9,0.8
		c-0.8,0-1.4-0.3-1.9-0.8c-0.5-0.5-0.8-1.2-0.8-1.9c0-0.7,0.3-1.4,0.8-1.9c0.5-0.5,1.2-0.8,1.9-0.8
		C690.8,185.1,691.5,185.4,692,185.9z M696.2,208.2c0,1-0.2,1.7-0.6,2.2c-0.4,0.4-1.1,0.7-2.2,0.7c-1.8,0-3.2-0.5-4.2-1.5
		c-1-1-1.5-2.5-1.5-4.4v-12.8h1.3c2.2,0,3.3,1.2,3.3,3.5v8.8c0,0.9,0.2,1.6,0.6,1.9c0.4,0.4,1.2,0.5,2.2,0.5h0.9V208.2z"/>
	<path class="st7" d="M713.6,198h-0.2c-0.3-0.6-0.9-1.1-1.8-1.4c-0.9-0.4-2-0.5-3.3-0.5c-1.4,0-2.6,0.5-3.6,1.5s-1.5,2.2-1.5,3.5
		c0,1.7,0.5,3.1,1.4,4.2c0.9,1.1,2.2,1.6,3.8,1.6c2.4,0,4.1-0.6,5-1.8h0.2v2.2c0,1.1-0.5,2.1-1.5,2.8c-1,0.7-2.4,1.1-4.1,1.1
		c-2.6,0-4.9-0.9-6.8-2.7c-1.9-1.8-2.9-4-2.9-6.7c0-2.8,0.9-5.2,2.8-7.1s4.3-2.9,7.4-2.9c1.5,0,2.7,0.4,3.7,1.2
		c1,0.8,1.5,1.7,1.5,2.9V198z"/>
	<path class="st7" d="M721.8,185.9c0,0,0.1,0.1,0.4,0.4c0.3,0.3,0.4,0.8,0.4,1.5c0,0.8-0.3,1.4-0.8,1.9s-1.2,0.8-1.9,0.8
		c-0.8,0-1.4-0.3-1.9-0.8c-0.5-0.5-0.8-1.2-0.8-1.9c0-0.7,0.3-1.4,0.8-1.9c0.5-0.5,1.2-0.8,1.9-0.8
		C720.6,185.1,721.3,185.4,721.8,185.9z M726,208.2c0,1-0.2,1.7-0.6,2.2c-0.4,0.4-1.1,0.7-2.2,0.7c-1.8,0-3.2-0.5-4.2-1.5
		c-1-1-1.5-2.5-1.5-4.4v-12.8h1.3c2.2,0,3.3,1.2,3.3,3.5v8.8c0,0.9,0.2,1.6,0.6,1.9c0.4,0.4,1.2,0.5,2.2,0.5h0.9V208.2z"/>
	<path class="st22" d="M750.4,200.9c0,1.4-0.6,2.4-1.7,2.9c-1.1,0.6-3,0.8-5.6,0.8h-2.5c0.1,1,0.6,1.7,1.4,2.3
		c0.8,0.6,1.8,0.9,3,0.9c2.1,0,3.7-0.5,4.8-1.5h0.1v1.2c0,2.4-1.9,3.5-5.6,3.5c-2,0-3.8-0.7-5.4-2.2s-2.3-3.4-2.3-5.7
		c0-2.6,0.7-4.6,2.1-6.2c1.4-1.5,3.3-2.3,5.5-2.3c1.7,0,3.2,0.6,4.4,1.7S750.4,199.1,750.4,200.9z M746.8,200.4
		c0-0.8-0.3-1.4-0.8-1.8s-1.3-0.6-2.2-0.6s-1.7,0.3-2.3,1c-0.6,0.7-0.9,1.4-1,2.4l0,0.5h1.7c1.8,0,3-0.1,3.6-0.3
		C746.5,201.4,746.8,201,746.8,200.4z"/>
	<path class="st22" d="M772.9,205.5c0,1.6-0.6,3-1.6,4c-1.1,1-2.5,1.6-4.3,1.6h-0.8c-1.8,0-3.3-0.5-4.5-1.4s-1.8-2.1-1.8-3.6
		c0-1.5,0.6-2.7,1.8-3.6c1.2-0.9,3.2-1.3,5.9-1.3h1.4V201c0-1.1-0.3-1.8-0.8-2.3c-0.5-0.4-1.4-0.6-2.6-0.6c-1.3,0-2.3,0.2-3.2,0.6
		c-0.8,0.4-1.4,0.8-1.8,1.2h-0.1v-1.2c0-1,0.5-1.9,1.4-2.7c0.9-0.8,2.4-1.1,4.2-1.1c0.9,0,1.8,0.1,2.5,0.3c0.8,0.2,1.4,0.6,2.1,1.1
		c0.6,0.5,1.1,1.2,1.5,2.2c0.4,0.9,0.5,2.1,0.5,3.4V205.5z M769.1,205.5V204h-1.4c-1.4,0-2.4,0.2-3,0.5c-0.6,0.3-0.8,0.8-0.8,1.5
		c0,0.6,0.2,1.1,0.7,1.4c0.5,0.3,1.1,0.5,2,0.5C768.3,207.9,769.1,207.1,769.1,205.5z"/>
	<path class="st22" d="M788.6,197c0,0.9-0.4,2.5-1.3,5c-1.4,3.8-2.9,6.8-4.5,9H782c-0.6,0-1-0.1-1.4-0.4c-0.4-0.2-0.7-0.6-1.1-1.2
		c-1.1-1.7-2.2-4-3.3-6.9s-1.7-5.4-1.9-7.4h2.1c0.6,0,1.1,0.2,1.6,0.6c0.4,0.4,0.7,0.8,0.8,1.3c0.7,3.5,1.7,6.6,3,9.1
		c1.7-3.3,2.8-7,3.4-11h1.7c0.7,0,1.1,0.1,1.4,0.4C788.5,195.9,788.6,196.4,788.6,197z"/>
	<path class="st22" d="M800,199h-0.1c-0.8-0.3-1.5-0.5-2.3-0.5c-1.8,0-2.7,1.1-2.7,3.3v9h-1.1c-0.9,0-1.6-0.2-2.1-0.7
		c-0.5-0.4-0.8-1-0.8-1.8v-7.2c0-1.7,0.5-3.2,1.4-4.3c0.9-1.2,2.4-1.8,4.3-1.8c1.1,0,1.9,0.3,2.5,0.8c0.5,0.5,0.8,1.1,0.8,1.8V199z"
		/>
	<path class="st22" d="M814.4,205.5c0,1.6-0.6,3-1.6,4c-1.1,1-2.5,1.6-4.3,1.6h-0.8c-1.8,0-3.3-0.5-4.5-1.4s-1.8-2.1-1.8-3.6
		c0-1.5,0.6-2.7,1.8-3.6c1.2-0.9,3.2-1.3,5.9-1.3h1.4V201c0-1.1-0.3-1.8-0.8-2.3c-0.5-0.4-1.4-0.6-2.6-0.6c-1.3,0-2.3,0.2-3.2,0.6
		c-0.8,0.4-1.4,0.8-1.8,1.2h-0.1v-1.2c0-1,0.5-1.9,1.4-2.7c0.9-0.8,2.4-1.1,4.2-1.1c0.9,0,1.8,0.1,2.5,0.3c0.8,0.2,1.4,0.6,2.1,1.1
		c0.6,0.5,1.1,1.2,1.5,2.2c0.4,0.9,0.5,2.1,0.5,3.4V205.5z M810.6,205.5V204h-1.4c-1.4,0-2.4,0.2-3,0.5c-0.6,0.3-0.8,0.8-0.8,1.5
		c0,0.6,0.2,1.1,0.7,1.4c0.5,0.3,1.1,0.5,2,0.5C809.8,207.9,810.6,207.1,810.6,205.5z"/>
	<path class="st22" d="M821.5,190.2c0,0,0.1,0.1,0.3,0.3c0.2,0.2,0.3,0.7,0.3,1.3c0,0.6-0.2,1.2-0.7,1.6s-1,0.7-1.6,0.7
		c-0.6,0-1.2-0.2-1.6-0.7c-0.5-0.5-0.7-1-0.7-1.6c0-0.6,0.2-1.1,0.7-1.6c0.4-0.4,1-0.7,1.6-0.7C820.5,189.5,821.1,189.8,821.5,190.2
		z M825,208.6c0,0.8-0.2,1.4-0.5,1.8c-0.4,0.4-0.9,0.6-1.8,0.6c-1.5,0-2.7-0.4-3.5-1.2c-0.8-0.8-1.2-2-1.2-3.6v-10.6h1.1
		c1.9,0,2.8,1,2.8,2.9v7.3c0,0.8,0.2,1.3,0.5,1.6c0.4,0.3,1,0.5,1.8,0.5h0.7V208.6z"/>
	<path class="st22" d="M845.9,205.9c0,1.7-0.6,3-1.7,3.9c-1.1,0.9-2.7,1.4-4.8,1.4c-1.4,0-2.6-0.3-3.6-0.9c-1-0.6-1.4-1.3-1.4-2.2
		v-1.8h0.1c0.4,0.4,1.1,0.8,2,1c0.9,0.3,1.8,0.4,2.7,0.4c1.9,0,2.8-0.6,2.8-1.7c0-0.5-0.2-0.8-0.7-1.1c-0.4-0.2-1.3-0.5-2.6-0.6
		c-1.7-0.2-2.9-0.7-3.7-1.4c-0.8-0.7-1.2-1.6-1.2-2.8c0-1.5,0.6-2.8,1.9-3.8c1.2-1,2.8-1.6,4.8-1.6c1.6,0,2.9,0.3,3.7,1
		c0.8,0.7,1.3,1.5,1.3,2.3v1.5h-0.1c-0.4-0.4-1-0.8-1.9-1c-0.8-0.3-1.7-0.4-2.6-0.4c-2.1,0-3.1,0.6-3.1,1.7c0,0.4,0.2,0.7,0.6,0.9
		c0.4,0.2,1.2,0.4,2.5,0.6C844.2,202,845.9,203.5,845.9,205.9z"/>
	<path class="st22" d="M862.1,200.9c0,1.4-0.6,2.4-1.7,2.9c-1.1,0.6-3,0.8-5.6,0.8h-2.5c0.1,1,0.6,1.7,1.4,2.3
		c0.8,0.6,1.8,0.9,3,0.9c2.1,0,3.7-0.5,4.8-1.5h0.1v1.2c0,2.4-1.9,3.5-5.7,3.5c-2,0-3.8-0.7-5.4-2.2s-2.3-3.4-2.3-5.7
		c0-2.6,0.7-4.6,2.1-6.2c1.4-1.5,3.3-2.3,5.5-2.3c1.7,0,3.2,0.6,4.4,1.7S862.1,199.1,862.1,200.9z M858.4,200.4
		c0-0.8-0.3-1.4-0.8-1.8s-1.3-0.6-2.2-0.6s-1.7,0.3-2.3,1c-0.6,0.7-0.9,1.4-1,2.4l0,0.5h1.7c1.8,0,3-0.1,3.6-0.3
		C858.1,201.4,858.4,201,858.4,200.4z"/>
	<path class="st22" d="M887.8,210.8h-1c-1,0-1.8-0.2-2.3-0.7s-0.7-1.2-0.7-2.1v-6c0-1.2-0.3-2.2-0.8-2.8c-0.5-0.6-1.2-0.9-2.1-0.9
		c-0.8,0-1.5,0.3-1.9,0.8c-0.5,0.6-0.7,1.4-0.7,2.4v9.3h-1c-0.9,0-1.6-0.2-2.1-0.7s-0.8-1.2-0.8-2.1v-6c0-1.2-0.3-2.2-0.8-2.8
		c-0.5-0.6-1.2-0.9-2.1-0.9c-0.8,0-1.4,0.3-1.9,0.9c-0.5,0.6-0.7,1.4-0.7,2.5v9.2h-1c-0.8,0-1.5-0.3-2-0.8c-0.5-0.5-0.8-1.2-0.8-2.1
		v-6.1c0-2.2,0.6-3.9,1.8-5.2c1.2-1.3,2.9-1.9,5.2-1.9c2,0,3.5,0.8,4.8,2.4c0.5-0.7,1.1-1.3,1.9-1.8c0.8-0.4,1.7-0.7,2.6-0.7
		c1.9,0,3.5,0.6,4.7,1.7c1.2,1.1,1.8,2.8,1.8,4.9V210.8z"/>
	<path class="st22" d="M906.5,202.5c0,2.6-0.6,4.7-1.9,6.3c-1.2,1.6-3,2.4-5.2,2.4c-0.8,0-1.6-0.2-2.3-0.7c-0.7-0.4-1.2-1-1.7-1.7
		v6.9h-1.2c-0.7,0-1.4-0.2-1.9-0.7c-0.6-0.5-0.8-1.1-0.8-2v-9.5c0-2.7,0.7-4.9,1.9-6.4c1.3-1.6,3.2-2.3,5.9-2.3c2,0,3.7,0.8,5.1,2.3
		C905.8,198.7,906.5,200.5,906.5,202.5z M902.5,203.6c0-1.8-0.3-3.2-0.9-4c-0.6-0.8-1.5-1.3-2.8-1.3c-1,0-1.9,0.4-2.5,1.2
		c-0.6,0.8-0.9,1.9-0.9,3.3c0,1.5,0.4,2.7,1,3.6s1.6,1.3,2.8,1.3c0.9,0,1.7-0.4,2.3-1.2C902.2,205.8,902.5,204.8,902.5,203.6z"/>
	<path class="st22" d="M918.6,199h-0.1c-0.8-0.3-1.5-0.5-2.3-0.5c-1.8,0-2.7,1.1-2.7,3.3v9h-1.1c-0.9,0-1.6-0.2-2.1-0.7
		c-0.5-0.4-0.8-1-0.8-1.8v-7.2c0-1.7,0.5-3.2,1.4-4.3c0.9-1.2,2.4-1.8,4.3-1.8c1.1,0,1.9,0.3,2.4,0.8c0.5,0.5,0.8,1.1,0.8,1.8V199z"
		/>
	<path class="st22" d="M933.9,200.9c0,1.4-0.6,2.4-1.7,2.9c-1.1,0.6-3,0.8-5.6,0.8h-2.5c0.1,1,0.6,1.7,1.4,2.3
		c0.8,0.6,1.8,0.9,3,0.9c2.1,0,3.7-0.5,4.8-1.5h0.1v1.2c0,2.4-1.9,3.5-5.7,3.5c-2,0-3.8-0.7-5.4-2.2s-2.3-3.4-2.3-5.7
		c0-2.6,0.7-4.6,2.1-6.2c1.4-1.5,3.3-2.3,5.5-2.3c1.7,0,3.2,0.6,4.4,1.7S933.9,199.1,933.9,200.9z M930.3,200.4
		c0-0.8-0.3-1.4-0.8-1.8s-1.3-0.6-2.2-0.6s-1.7,0.3-2.3,1c-0.6,0.7-0.9,1.4-1,2.4l0,0.5h1.7c1.8,0,3-0.1,3.6-0.3
		C930,201.4,930.3,201,930.3,200.4z"/>
	<path class="st22" d="M588.8,238.6c0,4.9-2.3,7.4-6.8,7.4c-2,0-3.6-0.6-4.9-1.9c-1.3-1.3-2-3-2-5.2V230h0.7c2.2,0,3.2,0.9,3.2,2.8
		v5.7c0,1.4,0.3,2.4,0.9,3c0.6,0.7,1.3,1,2.3,1c0.8,0,1.5-0.3,2-0.9c0.5-0.6,0.7-1.6,0.7-2.8V230h0.7c2.1,0,3.2,0.9,3.2,2.8V238.6z"
		/>
	<path class="st22" d="M606.3,245.6h-1c-0.8,0-1.5-0.2-2.1-0.7c-0.5-0.5-0.8-1.1-0.8-1.8v-6.2c0-2.5-1-3.8-3.2-3.8
		c-0.8,0-1.5,0.3-2.1,0.9c-0.5,0.6-0.8,1.5-0.8,2.6v9h-1.2c-0.8,0-1.5-0.2-2-0.7c-0.5-0.5-0.8-1.1-0.8-1.8v-6.8
		c0-1.8,0.6-3.4,1.8-4.7c1.2-1.3,3-2,5.2-2c1.9,0,3.5,0.6,4.8,1.8s1.9,2.9,1.9,5.1V245.6z"/>
	<path class="st22" d="M632.5,237.5c0,2.4-0.7,4.4-2.1,6.1c-1.4,1.6-3.3,2.4-5.6,2.4c-2.1,0-3.8-0.8-5.2-2.3
		c-1.4-1.5-2.2-3.4-2.2-5.7v-13.3h1.3c0.8,0,1.4,0.2,1.9,0.7c0.5,0.5,0.7,1.1,0.7,2v4.5c1.1-1.6,2.5-2.4,4.2-2.4c2,0,3.7,0.7,5,2.2
		C631.8,233.3,632.5,235.2,632.5,237.5z M628.4,238.2c0-1.8-0.3-3.1-0.9-3.9c-0.6-0.8-1.6-1.2-2.8-1.2c-1,0-1.8,0.4-2.5,1.3
		c-0.7,0.8-1,1.9-1,3.1c0,3.4,1.3,5.1,3.9,5.1c1,0,1.8-0.4,2.4-1.2C628.1,240.5,628.4,239.4,628.4,238.2z"/>
	<path class="st22" d="M649.3,238.6c0,4.9-2.3,7.4-6.8,7.4c-2,0-3.6-0.6-4.9-1.9c-1.3-1.3-2-3-2-5.2V230h0.7c2.2,0,3.2,0.9,3.2,2.8
		v5.7c0,1.4,0.3,2.4,0.9,3c0.6,0.7,1.3,1,2.3,1c0.8,0,1.5-0.3,2-0.9c0.5-0.6,0.7-1.6,0.7-2.8V230h0.7c2.1,0,3.2,0.9,3.2,2.8V238.6z"
		/>
	<path class="st22" d="M652.4,238.1c0-2.5,0.7-4.5,2.1-6.1c1.4-1.6,3.3-2.4,5.7-2.4c2.3,0,4,0.8,5.4,2.3c1.3,1.5,2,3.4,2,5.6
		c0,2.5-0.7,4.5-2,6.1c-1.4,1.6-3.3,2.4-5.7,2.4c-2.3,0-4-0.8-5.4-2.3C653,242.1,652.4,240.3,652.4,238.1z M663.5,238.1
		c0-3.3-1.2-5-3.7-5c-1.1,0-1.9,0.4-2.5,1.2c-0.6,0.8-0.9,1.9-0.9,3.2c0,3.3,1.2,5,3.7,5c1.1,0,1.9-0.4,2.5-1.2
		C663.2,240.5,663.5,239.4,663.5,238.1z"/>
	<path class="st22" d="M684.3,245.6h-1c-0.8,0-1.5-0.2-2.1-0.7c-0.5-0.5-0.8-1.1-0.8-1.8v-6.2c0-2.5-1-3.8-3.2-3.8
		c-0.8,0-1.5,0.3-2.1,0.9c-0.5,0.6-0.8,1.5-0.8,2.6v9h-1.2c-0.8,0-1.5-0.2-2-0.7c-0.5-0.5-0.8-1.1-0.8-1.8v-6.8
		c0-1.8,0.6-3.4,1.8-4.7c1.2-1.3,3-2,5.2-2c1.9,0,3.5,0.6,4.8,1.8s1.9,2.9,1.9,5.1V245.6z"/>
	<path class="st22" d="M707.5,240.3c0,1.6-0.6,3-1.6,4c-1.1,1-2.5,1.6-4.3,1.6h-0.8c-1.8,0-3.3-0.5-4.5-1.4s-1.8-2.1-1.8-3.6
		c0-1.5,0.6-2.7,1.8-3.6c1.2-0.9,3.2-1.3,5.9-1.3h1.4v-0.2c0-1.1-0.3-1.8-0.8-2.3c-0.5-0.4-1.4-0.6-2.6-0.6c-1.3,0-2.3,0.2-3.2,0.6
		c-0.8,0.4-1.4,0.8-1.8,1.2h-0.1v-1.2c0-1,0.5-1.9,1.4-2.7c0.9-0.8,2.4-1.1,4.2-1.1c0.9,0,1.8,0.1,2.5,0.3c0.8,0.2,1.4,0.6,2.1,1.1
		c0.6,0.5,1.1,1.2,1.5,2.2c0.4,0.9,0.5,2.1,0.5,3.4V240.3z M703.7,240.3v-1.5h-1.4c-1.4,0-2.4,0.2-3,0.5c-0.6,0.3-0.8,0.8-0.8,1.5
		c0,0.6,0.2,1.1,0.7,1.4c0.5,0.3,1.1,0.5,2,0.5C702.9,242.7,703.7,241.9,703.7,240.3z"/>
	<path class="st22" d="M719.7,228.2h-0.1c-0.7-0.2-1.5-0.3-2.3-0.3c-1.9,0-2.8,0.9-2.8,2.6v1.4h4.5v1.1c0,0.7-0.3,1.2-0.8,1.6
		c-0.6,0.4-1.2,0.6-1.9,0.6h-1.7v10.4H713c-0.6,0-1.2-0.2-1.7-0.7c-0.5-0.4-0.7-1-0.7-1.7v-13.1c0-0.6,0.1-1.2,0.3-1.8
		c0.2-0.6,0.6-1.2,1-1.8c0.4-0.6,1.1-1.1,1.9-1.5c0.8-0.4,1.8-0.6,2.8-0.6c0.9,0,1.6,0.2,2.2,0.7c0.6,0.4,0.8,1,0.8,1.8V228.2z"/>
	<path class="st22" d="M730.4,228.2h-0.1c-0.7-0.2-1.5-0.3-2.3-0.3c-1.9,0-2.8,0.9-2.8,2.6v1.4h4.5v1.1c0,0.7-0.3,1.2-0.8,1.6
		c-0.6,0.4-1.2,0.6-1.9,0.6h-1.7v10.4h-1.6c-0.6,0-1.2-0.2-1.7-0.7c-0.5-0.4-0.7-1-0.7-1.7v-13.1c0-0.6,0.1-1.2,0.3-1.8
		c0.2-0.6,0.6-1.2,1-1.8c0.4-0.6,1.1-1.1,1.9-1.5c0.8-0.4,1.8-0.6,2.8-0.6c0.9,0,1.6,0.2,2.2,0.7c0.6,0.4,0.8,1,0.8,1.8V228.2z"/>
	<path class="st22" d="M744.2,240.3c0,1.6-0.6,3-1.6,4c-1.1,1-2.5,1.6-4.3,1.6h-0.8c-1.8,0-3.3-0.5-4.5-1.4s-1.8-2.1-1.8-3.6
		c0-1.5,0.6-2.7,1.8-3.6c1.2-0.9,3.2-1.3,5.9-1.3h1.4v-0.2c0-1.1-0.3-1.8-0.8-2.3c-0.5-0.4-1.4-0.6-2.6-0.6c-1.3,0-2.3,0.2-3.2,0.6
		c-0.8,0.4-1.4,0.8-1.8,1.2h-0.1v-1.2c0-1,0.5-1.9,1.4-2.7c0.9-0.8,2.4-1.1,4.2-1.1c0.9,0,1.8,0.1,2.5,0.3c0.8,0.2,1.4,0.6,2.1,1.1
		c0.6,0.5,1.1,1.2,1.5,2.2c0.4,0.9,0.5,2.1,0.5,3.4V240.3z M740.4,240.3v-1.5H739c-1.4,0-2.4,0.2-3,0.5c-0.6,0.3-0.8,0.8-0.8,1.5
		c0,0.6,0.2,1.1,0.7,1.4c0.5,0.3,1.1,0.5,2,0.5C739.6,242.7,740.4,241.9,740.4,240.3z"/>
	<path class="st22" d="M756.3,233.8h-0.1c-0.8-0.3-1.5-0.5-2.3-0.5c-1.8,0-2.7,1.1-2.7,3.3v9h-1.1c-0.9,0-1.6-0.2-2.1-0.7
		c-0.5-0.4-0.8-1-0.8-1.8V236c0-1.7,0.5-3.2,1.4-4.3c0.9-1.2,2.4-1.8,4.3-1.8c1.1,0,1.9,0.3,2.5,0.8c0.5,0.5,0.8,1.1,0.8,1.8V233.8z
		"/>
	<path class="st22" d="M771.7,235.7c0,1.4-0.6,2.4-1.7,2.9c-1.1,0.6-3,0.8-5.6,0.8h-2.5c0.1,1,0.6,1.7,1.4,2.3
		c0.8,0.6,1.8,0.9,3,0.9c2.1,0,3.7-0.5,4.8-1.5h0.1v1.2c0,2.4-1.9,3.5-5.7,3.5c-2,0-3.8-0.7-5.4-2.2s-2.3-3.4-2.3-5.6
		c0-2.6,0.7-4.6,2.1-6.2c1.4-1.5,3.3-2.3,5.5-2.3c1.7,0,3.2,0.6,4.4,1.7S771.7,233.9,771.7,235.7z M768,235.2c0-0.8-0.3-1.4-0.8-1.8
		s-1.3-0.6-2.2-0.6s-1.7,0.3-2.3,1c-0.6,0.7-0.9,1.4-1,2.4l0,0.5h1.7c1.8,0,3-0.1,3.6-0.3C767.7,236.2,768,235.8,768,235.2z"/>
	<path class="st22" d="M795.9,238.4c0,2.4-0.6,4.2-1.8,5.6c-1.2,1.3-3.1,2-5.7,2c-2.1,0-3.8-0.8-5.2-2.3c-1.4-1.5-2.1-3.4-2.1-5.6
		c0-2.6,0.6-4.7,1.8-6.2s3-2.3,5.2-2.3c0.8,0,1.5,0.2,2.3,0.7c0.8,0.5,1.3,1.1,1.6,1.7v-7.3h1.2c0.9,0,1.6,0.2,2,0.7
		c0.4,0.5,0.7,1.1,0.7,1.9V238.4z M792,238.3c0-1.8-0.4-3.2-1-4s-1.6-1.3-2.7-1.3c-1,0-1.8,0.4-2.4,1.3c-0.6,0.8-0.9,1.9-0.9,3.2
		c0,1.6,0.4,2.9,1.1,3.9c0.7,1,1.7,1.5,2.8,1.5C791,242.7,792,241.2,792,238.3z"/>
	<path class="st22" d="M812,240.3c0,1.6-0.6,3-1.6,4c-1.1,1-2.5,1.6-4.3,1.6h-0.8c-1.8,0-3.3-0.5-4.5-1.4s-1.8-2.1-1.8-3.6
		c0-1.5,0.6-2.7,1.8-3.6c1.2-0.9,3.2-1.3,5.9-1.3h1.4v-0.2c0-1.1-0.3-1.8-0.8-2.3c-0.5-0.4-1.4-0.6-2.6-0.6c-1.3,0-2.3,0.2-3.2,0.6
		c-0.8,0.4-1.4,0.8-1.8,1.2h-0.1v-1.2c0-1,0.5-1.9,1.4-2.7c0.9-0.8,2.4-1.1,4.2-1.1c0.9,0,1.8,0.1,2.5,0.3c0.8,0.2,1.4,0.6,2.1,1.1
		c0.6,0.5,1.1,1.2,1.5,2.2c0.4,0.9,0.5,2.1,0.5,3.4V240.3z M808.2,240.3v-1.5h-1.4c-1.4,0-2.4,0.2-3,0.5c-0.6,0.3-0.8,0.8-0.8,1.5
		c0,0.6,0.2,1.1,0.7,1.4c0.5,0.3,1.1,0.5,2,0.5C807.4,242.7,808.2,241.9,808.2,240.3z"/>
	<path class="st22" d="M834.2,235h-0.1c-0.3-0.5-0.8-0.9-1.5-1.2c-0.8-0.3-1.6-0.4-2.7-0.4c-1.1,0-2.1,0.4-3,1.2s-1.3,1.8-1.3,2.9
		c0,1.4,0.4,2.6,1.2,3.5c0.8,0.9,1.8,1.3,3.1,1.3c2,0,3.4-0.5,4.1-1.5h0.1v1.8c0,0.9-0.4,1.7-1.3,2.3c-0.8,0.6-2,0.9-3.4,0.9
		c-2.2,0-4.1-0.8-5.6-2.3c-1.6-1.5-2.4-3.3-2.4-5.5c0-2.3,0.8-4.3,2.3-5.9s3.6-2.4,6.1-2.4c1.2,0,2.3,0.3,3.1,1
		c0.8,0.7,1.2,1.4,1.2,2.4V235z"/>
	<path class="st22" d="M836.3,238.1c0-2.5,0.7-4.5,2.1-6.1c1.4-1.6,3.3-2.4,5.7-2.4c2.3,0,4.1,0.8,5.4,2.3c1.3,1.5,2,3.4,2,5.6
		c0,2.5-0.7,4.5-2,6.1c-1.4,1.6-3.3,2.4-5.7,2.4c-2.3,0-4-0.8-5.4-2.3C837,242.1,836.3,240.3,836.3,238.1z M847.4,238.1
		c0-3.3-1.2-5-3.7-5c-1.1,0-1.9,0.4-2.5,1.2c-0.6,0.8-0.9,1.9-0.9,3.2c0,3.3,1.2,5,3.7,5c1.1,0,1.9-0.4,2.5-1.2
		C847.1,240.5,847.4,239.4,847.4,238.1z"/>
	<path class="st22" d="M868.3,245.6h-1c-0.8,0-1.5-0.2-2.1-0.7c-0.5-0.5-0.8-1.1-0.8-1.8v-6.2c0-2.5-1-3.8-3.2-3.8
		c-0.8,0-1.5,0.3-2.1,0.9c-0.5,0.6-0.8,1.5-0.8,2.6v9h-1.2c-0.8,0-1.5-0.2-2-0.7c-0.5-0.5-0.8-1.1-0.8-1.8v-6.8
		c0-1.8,0.6-3.4,1.8-4.7c1.2-1.3,3-2,5.2-2c1.9,0,3.5,0.6,4.8,1.8s1.9,2.9,1.9,5.1V245.6z"/>
	<path class="st22" d="M884,235h-0.1c-0.3-0.5-0.8-0.9-1.5-1.2c-0.8-0.3-1.6-0.4-2.7-0.4c-1.1,0-2.1,0.4-3,1.2s-1.3,1.8-1.3,2.9
		c0,1.4,0.4,2.6,1.2,3.5c0.8,0.9,1.8,1.3,3.1,1.3c2,0,3.4-0.5,4.1-1.5h0.1v1.8c0,0.9-0.4,1.7-1.3,2.3c-0.8,0.6-2,0.9-3.4,0.9
		c-2.2,0-4.1-0.8-5.6-2.3c-1.6-1.5-2.4-3.3-2.4-5.5c0-2.3,0.8-4.3,2.3-5.9s3.6-2.4,6.1-2.4c1.2,0,2.3,0.3,3.1,1
		c0.8,0.7,1.2,1.4,1.2,2.4V235z"/>
	<path class="st22" d="M894.5,243.4c0,1.6-0.9,2.4-2.6,2.4c-1.6,0-2.8-0.4-3.7-1.2c-0.9-0.8-1.3-2-1.3-3.6v-16.2h1.1
		c0.9,0,1.6,0.2,2.1,0.7c0.5,0.5,0.7,1.1,0.7,1.9v13.2c0,0.8,0.2,1.3,0.6,1.6c0.4,0.3,1.1,0.5,2,0.5h1V243.4z"/>
	<path class="st22" d="M910,238.6c0,4.9-2.3,7.4-6.8,7.4c-2,0-3.6-0.6-4.9-1.9c-1.3-1.3-2-3-2-5.2V230h0.7c2.2,0,3.2,0.9,3.2,2.8
		v5.7c0,1.4,0.3,2.4,0.9,3c0.6,0.7,1.3,1,2.3,1c0.8,0,1.5-0.3,2-0.9c0.5-0.6,0.7-1.6,0.7-2.8V230h0.7c2.1,0,3.2,0.9,3.2,2.8V238.6z"
		/>
	<path class="st22" d="M927.9,238.4c0,2.4-0.6,4.2-1.8,5.6c-1.2,1.3-3.1,2-5.7,2c-2.1,0-3.8-0.8-5.2-2.3c-1.4-1.5-2.1-3.4-2.1-5.6
		c0-2.6,0.6-4.7,1.8-6.2s3-2.3,5.2-2.3c0.8,0,1.5,0.2,2.3,0.7c0.8,0.5,1.3,1.1,1.6,1.7v-7.3h1.2c0.9,0,1.6,0.2,2,0.7
		c0.4,0.5,0.7,1.1,0.7,1.9V238.4z M923.9,238.3c0-1.8-0.4-3.2-1-4s-1.6-1.3-2.7-1.3c-1,0-1.8,0.4-2.4,1.3c-0.6,0.8-0.9,1.9-0.9,3.2
		c0,1.6,0.4,2.9,1.1,3.9c0.7,1,1.7,1.5,2.8,1.5C922.9,242.7,923.9,241.2,923.9,238.3z"/>
	<path class="st22" d="M944.8,235.7c0,1.4-0.6,2.4-1.7,2.9c-1.1,0.6-3,0.8-5.6,0.8H935c0.1,1,0.6,1.7,1.4,2.3c0.8,0.6,1.8,0.9,3,0.9
		c2.1,0,3.7-0.5,4.8-1.5h0.1v1.2c0,2.4-1.9,3.5-5.7,3.5c-2,0-3.8-0.7-5.4-2.2s-2.3-3.4-2.3-5.6c0-2.6,0.7-4.6,2.1-6.2
		c1.4-1.5,3.3-2.3,5.5-2.3c1.7,0,3.2,0.6,4.4,1.7S944.8,233.9,944.8,235.7z M941.2,235.2c0-0.8-0.3-1.4-0.8-1.8s-1.3-0.6-2.2-0.6
		s-1.7,0.3-2.3,1c-0.6,0.7-0.9,1.4-1,2.4l0,0.5h1.7c1.8,0,3-0.1,3.6-0.3C940.9,236.2,941.2,235.8,941.2,235.2z"/>
	<path class="st22" d="M956.8,233.8h-0.1c-0.8-0.3-1.5-0.5-2.3-0.5c-1.8,0-2.7,1.1-2.7,3.3v9h-1.1c-0.9,0-1.6-0.2-2.1-0.7
		c-0.5-0.4-0.8-1-0.8-1.8V236c0-1.7,0.5-3.2,1.4-4.3c0.9-1.2,2.4-1.8,4.3-1.8c1.1,0,1.9,0.3,2.5,0.8c0.5,0.5,0.8,1.1,0.8,1.8V233.8z
		"/>
	<path class="st22" d="M972.2,235.7c0,1.4-0.6,2.4-1.7,2.9c-1.1,0.6-3,0.8-5.6,0.8h-2.5c0.1,1,0.6,1.7,1.4,2.3
		c0.8,0.6,1.8,0.9,3,0.9c2.1,0,3.7-0.5,4.8-1.5h0.1v1.2c0,2.4-1.9,3.5-5.7,3.5c-2,0-3.8-0.7-5.4-2.2s-2.3-3.4-2.3-5.6
		c0-2.6,0.7-4.6,2.1-6.2c1.4-1.5,3.3-2.3,5.5-2.3c1.7,0,3.2,0.6,4.4,1.7S972.2,233.9,972.2,235.7z M968.6,235.2
		c0-0.8-0.3-1.4-0.8-1.8s-1.3-0.6-2.2-0.6s-1.7,0.3-2.3,1c-0.6,0.7-0.9,1.4-1,2.4l0,0.5h1.7c1.8,0,3-0.1,3.6-0.3
		C968.3,236.2,968.6,235.8,968.6,235.2z"/>
	<path class="st22" d="M976.6,246c-1,0-1.7-0.8-1.7-1.8c0-1,0.7-1.8,1.7-1.8c1,0,1.7,0.8,1.7,1.8C978.4,245.2,977.7,246,976.6,246
		L976.6,246z M975.7,240l-0.4-14h2.8l-0.4,14H975.7z"/>
</g>
<g>
	<path class="st7" d="M605.9,74c0,3.6-1.1,6.4-3.2,8.5s-4.9,3.2-8.3,3.2c-2.4,0-4.3-0.4-5.7-1.1l0.1,13.3l-2.7,0
		c-1.1,0-2.1-0.4-2.9-1.2c-0.9-0.8-1.3-2-1.3-3.7l-0.2-28c1-0.4,2.5-0.7,4.3-1.1c1.9-0.4,3.4-0.5,4.6-0.5l3.8,0
		c3.4,0,6.2,0.9,8.3,2.7C604.9,68,605.9,70.6,605.9,74z M598.9,74.6c0-1.9-0.4-3.3-1.3-4.2c-0.9-0.8-2.2-1.3-4-1.2l-2.2,0
		c-0.3,0-1.2,0.2-2.8,0.5l0.1,9.7c1.4,0.4,3,0.6,4.8,0.6c1.7,0,3.1-0.5,4-1.4C598.5,77.6,598.9,76.3,598.9,74.6z"/>
	<path class="st7" d="M632.7,80.5c0,2.4-1,4.1-2.9,5.1c-1.9,1-5.2,1.5-9.7,1.5l-4.4,0c0.2,1.7,1.1,3,2.5,4c1.4,1,3.1,1.5,5.1,1.5
		c3.7,0,6.4-0.9,8.2-2.6l0.2,0l0,2.1c0,4.1-3.2,6.1-9.7,6.2c-3.5,0-6.6-1.2-9.3-3.8c-2.7-2.5-4-5.8-4.1-9.7c0-4.4,1.2-8,3.6-10.7
		c2.4-2.7,5.6-4,9.5-4c2.9,0,5.5,0.9,7.6,2.8S632.7,77.4,632.7,80.5z M626.4,79.8c0-1.3-0.5-2.3-1.4-3s-2.2-1-3.8-1
		c-1.6,0-2.9,0.6-3.9,1.7c-1,1.1-1.6,2.5-1.7,4.1l0,0.9l3,0c3.1,0,5.2-0.2,6.2-0.6C625.9,81.4,626.4,80.7,626.4,79.8z"/>
	<path class="st7" d="M653.4,77.1l-0.2,0c-1.3-0.5-2.6-0.8-3.9-0.8c-3.1,0-4.6,1.9-4.6,5.8l0.1,15.5l-1.9,0c-1.5,0-2.7-0.4-3.6-1.1
		c-0.9-0.8-1.3-1.8-1.3-3.2l-0.1-12.4c0-3,0.8-5.5,2.4-7.5c1.6-2,4.1-3.1,7.5-3.1c1.9,0,3.3,0.4,4.2,1.3c0.9,0.8,1.4,1.9,1.4,3.1
		L653.4,77.1z"/>
	<path class="st7" d="M677.9,79.1l-0.2,0c-0.5-0.8-1.4-1.5-2.6-2c-1.3-0.5-2.8-0.7-4.7-0.7c-2,0-3.7,0.7-5.1,2.1
		c-1.5,1.4-2.2,3.1-2.2,5.1c0,2.5,0.7,4.4,2.1,5.9c1.4,1.5,3.2,2.3,5.4,2.3c3.5,0,5.8-0.9,7.1-2.6l0.2,0l0,3.1c0,1.6-0.7,3-2.2,4
		c-1.5,1.1-3.4,1.6-5.8,1.6c-3.8,0-7-1.3-9.7-3.8c-2.7-2.5-4.1-5.7-4.1-9.5c0-4,1.3-7.4,3.9-10.2c2.6-2.8,6.2-4.2,10.6-4.2
		c2.1,0,3.9,0.5,5.3,1.6c1.4,1.1,2.1,2.5,2.1,4.1L677.9,79.1z"/>
	<path class="st7" d="M706.8,97.3l-2.2,0c-1.4,0-2.5-0.4-3.3-1.2c-0.8-0.8-1.2-1.9-1.2-3.3l-0.1-11c0-2.1-0.5-3.7-1.5-4.7
		c-1-1-2.3-1.5-3.9-1.5c-1.3,0-2.4,0.5-3.4,1.6c-1,1.1-1.5,2.6-1.5,4.8l0.1,15.3l-2.2,0c-3.1,0-4.6-1.5-4.6-4.5l-0.2-31.5l2.1,0
		c1.5,0,2.7,0.4,3.5,1.2c0.8,0.8,1.2,1.8,1.2,3.1l0,7.7c0.6-0.9,1.4-1.8,2.5-2.5c1.1-0.7,2.2-1.1,3.4-1.1c3.5,0,6.2,1,8.2,3
		c1.9,2,2.9,4.9,2.9,8.7L706.8,97.3z"/>
	<path class="st7" d="M735.9,80c0,2.4-1,4.1-2.9,5.1c-1.9,1-5.2,1.5-9.7,1.5l-4.4,0c0.2,1.7,1.1,3,2.5,4c1.4,1,3.1,1.5,5.1,1.5
		c3.7,0,6.4-0.9,8.2-2.6l0.2,0l0,2.1c0,4.1-3.2,6.1-9.7,6.2c-3.5,0-6.6-1.2-9.3-3.8c-2.7-2.5-4-5.8-4.1-9.7c0-4.4,1.2-8,3.6-10.7
		c2.4-2.7,5.6-4,9.5-4c2.9,0,5.5,0.9,7.6,2.8C734.8,74.3,735.9,76.9,735.9,80z M729.6,79.2c0-1.3-0.5-2.3-1.4-3
		c-0.9-0.7-2.2-1-3.8-1c-1.6,0-2.9,0.6-3.9,1.7c-1,1.1-1.6,2.5-1.7,4.1l0,0.9l3,0c3.1,0,5.2-0.2,6.2-0.6
		C729.1,80.8,729.6,80.1,729.6,79.2z"/>
	<path class="st7" d="M774.7,87.7c0,2.8-0.9,5.2-2.8,6.9c-1.9,1.8-4.3,2.7-7.3,2.8l-1.4,0c-3.1,0-5.7-0.8-7.8-2.4s-3-3.6-3.1-6.1
		c0-2.6,1-4.7,3.1-6.2s5.5-2.3,10.2-2.3l2.3,0l0-0.3c0-1.9-0.5-3.2-1.4-3.9c-0.9-0.7-2.4-1.1-4.4-1.1c-2.2,0-4,0.3-5.4,1
		s-2.5,1.4-3.1,2.2l-0.2,0l0-2.1c0-1.7,0.8-3.3,2.4-4.6c1.6-1.3,4.1-2,7.3-2c1.6,0,3.1,0.2,4.4,0.6c1.3,0.4,2.5,1,3.6,1.9
		c1.1,0.9,1.9,2.1,2.6,3.7c0.6,1.6,0.9,3.6,0.9,5.8L774.7,87.7z M768.1,87.8l0-2.6l-2.4,0c-2.4,0-4.1,0.3-5.1,0.8
		c-0.9,0.6-1.4,1.4-1.4,2.6c0,1.1,0.4,1.9,1.2,2.5c0.8,0.6,2,0.9,3.4,0.9C766.7,91.9,768.2,90.5,768.1,87.8z"/>
	<path class="st7" d="M799.4,88.3c0,2.9-0.9,5.1-2.9,6.7c-1.9,1.6-4.7,2.4-8.3,2.5c-2.4,0-4.5-0.5-6.2-1.6c-1.7-1-2.5-2.3-2.5-3.7
		l0-3l0.2,0c0.7,0.7,1.9,1.3,3.4,1.8c1.5,0.5,3.1,0.7,4.7,0.7c3.2,0,4.9-1,4.9-3c0-0.8-0.4-1.4-1.1-1.8c-0.8-0.4-2.3-0.8-4.5-1.1
		c-2.9-0.4-5-1.1-6.4-2.3c-1.4-1.2-2.1-2.8-2.1-4.8c0-2.6,1-4.8,3.2-6.6c2.1-1.8,4.9-2.7,8.2-2.8c2.8,0,4.9,0.6,6.4,1.7
		c1.5,1.2,2.2,2.5,2.2,4l0,2.5l-0.2,0c-0.7-0.7-1.8-1.3-3.2-1.8c-1.4-0.5-2.9-0.7-4.5-0.7c-3.6,0-5.4,1-5.4,3c0,0.7,0.3,1.2,1,1.6
		c0.7,0.4,2.2,0.7,4.4,1.1C796.5,81.6,799.4,84.1,799.4,88.3z"/>
	<path class="st7" d="M830.3,82.3c0,4.4-1,8-3.1,10.8c-2.1,2.8-5.1,4.2-8.9,4.2c-1.4,0-2.7-0.4-3.9-1.1c-1.2-0.7-2.2-1.7-2.9-2.9
		l0.1,11.9l-2.1,0c-1.3,0-2.4-0.4-3.3-1.3c-1-0.8-1.4-2-1.4-3.4l-0.1-16.3c0-4.7,1.1-8.4,3.3-11.1c2.2-2.7,5.6-4.1,10.1-4.1
		c3.5,0,6.4,1.3,8.8,4C829.1,75.7,830.3,78.8,830.3,82.3z M823.4,84.1c0-3.1-0.5-5.4-1.6-6.9c-1.1-1.5-2.7-2.2-4.8-2.2
		c-1.8,0-3.2,0.7-4.2,2.2c-1,1.4-1.5,3.4-1.5,5.7c0,2.7,0.6,4.7,1.8,6.2c1.2,1.5,2.8,2.2,4.8,2.2c1.6,0,3-0.7,4-2
		C822.9,87.9,823.4,86.2,823.4,84.1z"/>
	<path class="st7" d="M858.3,79.3c0,2.4-1,4.1-2.9,5.1c-1.9,1-5.2,1.5-9.7,1.5l-4.4,0c0.2,1.7,1.1,3,2.5,4c1.4,1,3.1,1.5,5.1,1.5
		c3.7,0,6.4-0.9,8.2-2.6l0.2,0l0,2.1c0,4.1-3.2,6.1-9.7,6.2c-3.5,0-6.6-1.2-9.3-3.8s-4-5.8-4.1-9.7c0-4.4,1.2-8,3.6-10.7
		c2.4-2.7,5.6-4,9.5-4c2.9,0,5.5,0.9,7.6,2.8C857.2,73.7,858.3,76.2,858.3,79.3z M852,78.5c0-1.3-0.5-2.3-1.4-3s-2.2-1-3.8-1
		c-1.6,0-2.9,0.6-3.9,1.7c-1,1.1-1.6,2.5-1.7,4.1l0,0.9l3,0c3.1,0,5.2-0.2,6.2-0.6C851.5,80.2,852,79.5,852,78.5z"/>
	<path class="st7" d="M863.6,70.5c0-1.3,0.1-2.2,0.4-3c0.3-0.7,0.8-1.5,1.5-2.4c1.1-1.3,2.1-1.9,3.1-1.9l1.6,0l0,6.1l9.4-0.1l0,2.8
		c0,0.8-0.3,1.5-1,2.2c-0.7,0.7-1.7,1-2.9,1l-5.3,0l0.1,10.5c0,3.2,1.4,4.8,4.3,4.8c2.2,0,3.8-0.3,4.8-1l0.3,0l0,2.4
		c0,1.4-0.5,2.5-1.5,3.3c-1,0.8-2.5,1.2-4.4,1.2c-3.3,0-5.9-0.8-7.6-2.6c-1.7-1.7-2.6-4.2-2.6-7.4L863.6,70.5z"/>
	<path class="st7" d="M883.9,70.4c0-1.3,0.1-2.2,0.4-3c0.3-0.7,0.8-1.5,1.5-2.4c1.1-1.3,2.1-1.9,3.1-1.9l1.6,0l0,6.1l9.3-0.1l0,2.8
		c0,0.8-0.3,1.5-1,2.2s-1.7,1-2.9,1l-5.3,0l0.1,10.5c0,3.2,1.4,4.8,4.3,4.8c2.2,0,3.8-0.3,4.8-1l0.3,0l0,2.4c0,1.4-0.5,2.5-1.5,3.3
		c-1,0.8-2.5,1.2-4.4,1.2c-3.3,0-5.9-0.8-7.6-2.6c-1.7-1.7-2.6-4.2-2.6-7.4L883.9,70.4z"/>
	<path class="st7" d="M925.1,86.9c0,2.8-0.9,5.2-2.8,6.9c-1.9,1.8-4.3,2.7-7.3,2.8l-1.4,0c-3.2,0-5.7-0.8-7.8-2.4s-3-3.6-3.1-6.1
		c0-2.6,1-4.7,3.1-6.2c2.1-1.5,5.5-2.3,10.2-2.3l2.3,0l0-0.3c0-1.9-0.5-3.2-1.4-3.9s-2.4-1.1-4.4-1.1c-2.2,0-4,0.3-5.4,1
		c-1.4,0.6-2.5,1.4-3.1,2.2l-0.2,0l0-2.1c0-1.7,0.8-3.3,2.4-4.6c1.6-1.3,4.1-2,7.3-2c1.6,0,3.1,0.2,4.4,0.6c1.3,0.4,2.5,1,3.6,1.9
		c1.1,0.9,1.9,2.1,2.6,3.7c0.6,1.6,0.9,3.6,0.9,5.8L925.1,86.9z M918.6,87l0-2.6l-2.4,0c-2.4,0-4.1,0.3-5.1,0.8
		c-0.9,0.6-1.4,1.4-1.4,2.6c0,1.1,0.4,1.9,1.2,2.5c0.8,0.6,2,0.9,3.4,0.9C917.2,91.1,918.6,89.7,918.6,87z"/>
	<path class="st7" d="M945.9,75.5l-0.2,0c-1.3-0.5-2.6-0.8-3.9-0.8c-3.1,0-4.6,1.9-4.6,5.8l0.1,15.5l-1.9,0c-1.5,0-2.7-0.4-3.6-1.1
		c-0.9-0.8-1.3-1.8-1.3-3.2l-0.1-12.4c0-3,0.8-5.5,2.4-7.5c1.6-2,4.1-3.1,7.5-3.1c1.9,0,3.3,0.4,4.2,1.3c0.9,0.8,1.4,1.9,1.4,3.1
		L945.9,75.5z"/>
	<path class="st7" d="M972.4,78.7c0,2.4-1,4.1-2.9,5.1c-1.9,1-5.2,1.5-9.7,1.5l-4.4,0c0.2,1.7,1.1,3,2.5,4c1.4,1,3.1,1.5,5.1,1.5
		c3.7,0,6.4-0.9,8.2-2.6l0.2,0l0,2.1c0,4.1-3.2,6.1-9.7,6.2c-3.5,0-6.6-1.2-9.3-3.8s-4-5.8-4.1-9.7c0-4.4,1.2-8,3.6-10.7
		c2.4-2.7,5.6-4,9.5-4c2.9,0,5.5,0.9,7.6,2.8C971.3,73,972.4,75.6,972.4,78.7z M966.1,77.9c0-1.3-0.5-2.3-1.4-3s-2.2-1-3.8-1
		c-1.6,0-2.9,0.6-3.9,1.7c-1,1.1-1.6,2.5-1.7,4.1l0,0.9l3,0c3.1,0,5.2-0.2,6.2-0.6C965.6,79.5,966.1,78.9,966.1,77.9z"/>
	<path class="st7" d="M709.5,111.6c0,0,0.2,0.2,0.6,0.6c0.4,0.4,0.6,1.1,0.6,2.2c0,1.1-0.4,2-1.2,2.8c-0.8,0.8-1.7,1.2-2.8,1.2
		c-1.1,0-2-0.4-2.8-1.2c-0.8-0.8-1.2-1.7-1.2-2.8c0-1,0.4-2,1.2-2.7c0.8-0.8,1.7-1.2,2.8-1.2C707.8,110.5,708.8,110.9,709.5,111.6z
		 M715.7,143.4c0,1.4-0.3,2.5-0.9,3.1c-0.6,0.6-1.6,1-3.1,1c-2.6,0-4.6-0.7-6-2.1c-1.4-1.4-2.1-3.5-2.1-6.2l-0.1-18.2l1.9,0
		c3.2,0,4.8,1.6,4.8,5l0.1,12.6c0,1.3,0.3,2.2,0.9,2.8c0.6,0.5,1.7,0.8,3.2,0.8l1.3,0L715.7,143.4z"/>
	<path class="st7" d="M751.7,138.5c0,2.9-0.9,5.1-2.9,6.7c-1.9,1.6-4.7,2.4-8.3,2.5c-2.4,0-4.5-0.5-6.2-1.6c-1.7-1-2.5-2.3-2.5-3.7
		l0-3l0.2,0c0.7,0.7,1.9,1.3,3.4,1.8c1.5,0.5,3.1,0.7,4.7,0.7c3.2,0,4.9-1,4.9-3c0-0.8-0.4-1.4-1.1-1.8c-0.8-0.4-2.2-0.8-4.5-1.1
		c-2.9-0.4-5-1.1-6.4-2.3c-1.4-1.2-2.1-2.8-2.1-4.8c0-2.6,1-4.8,3.2-6.6c2.1-1.8,4.9-2.7,8.2-2.8c2.8,0,4.9,0.6,6.4,1.7
		c1.5,1.2,2.2,2.5,2.2,4l0,2.5l-0.2,0c-0.7-0.7-1.8-1.3-3.2-1.8c-1.4-0.5-2.9-0.7-4.5-0.7c-3.6,0-5.4,1-5.4,3c0,0.7,0.3,1.2,1,1.6
		c0.7,0.4,2.2,0.7,4.4,1C748.7,131.8,751.6,134.3,751.7,138.5z"/>
	<path class="st7" d="M778,137.7c0,2.8-0.9,5.2-2.8,6.9c-1.9,1.8-4.3,2.7-7.3,2.8l-1.4,0c-3.1,0-5.7-0.8-7.8-2.4s-3-3.6-3.1-6.1
		c0-2.6,1-4.7,3.1-6.2s5.5-2.3,10.2-2.3l2.3,0l0-0.3c0-1.9-0.5-3.2-1.4-3.9c-0.9-0.7-2.4-1.1-4.4-1c-2.2,0-4,0.3-5.4,1
		s-2.5,1.4-3.1,2.2l-0.2,0l0-2.1c0-1.7,0.8-3.3,2.4-4.6c1.6-1.3,4.1-2,7.3-2c1.6,0,3.1,0.2,4.4,0.6c1.3,0.4,2.5,1,3.6,1.9
		c1.1,0.9,1.9,2.1,2.6,3.7c0.6,1.6,0.9,3.6,0.9,5.8L778,137.7z M771.5,137.8l0-2.6l-2.4,0c-2.4,0-4.1,0.3-5.1,0.8
		c-0.9,0.6-1.4,1.4-1.4,2.6c0,1.1,0.4,1.9,1.2,2.5c0.8,0.6,2,0.9,3.4,0.9C770,141.9,771.5,140.5,771.5,137.8z"/>
	<path class="st7" d="M796.6,143c0,2.7-1.5,4.1-4.5,4.1c-2.8,0-4.9-0.7-6.4-2.1c-1.5-1.4-2.2-3.5-2.3-6.2l-0.2-27.9l1.9,0
		c1.6,0,2.8,0.4,3.6,1.2c0.8,0.8,1.2,1.9,1.2,3.3l0.1,22.7c0,1.3,0.4,2.2,1.1,2.8c0.7,0.5,1.9,0.8,3.5,0.8l1.8,0L796.6,143z"/>
	<path class="st7" d="M823.8,134.2c0,4.1-1,7.3-3.1,9.6c-2.1,2.3-5.3,3.5-9.8,3.5c-3.5,0-6.5-1.3-8.9-4c-2.4-2.6-3.7-5.8-3.7-9.6
		c0-4.5,1-8.1,3.1-10.7c2.1-2.6,5.1-3.9,9-4c1.3,0,2.7,0.4,4,1.2c1.3,0.8,2.2,1.8,2.8,3l-0.1-12.7l2.1,0c1.5,0,2.7,0.4,3.4,1.2
		c0.8,0.8,1.2,1.9,1.2,3.3L823.8,134.2z M817.1,133.9c0-3.2-0.6-5.5-1.8-7c-1.2-1.5-2.8-2.2-4.7-2.2c-1.7,0-3,0.7-4,2.2
		c-1,1.4-1.5,3.3-1.5,5.5c0,2.8,0.7,5,1.9,6.7c1.3,1.7,2.9,2.5,4.9,2.5C815.3,141.6,817.1,139,817.1,133.9z"/>
	<path class="st7" d="M837.2,111c0,0,0.2,0.2,0.6,0.6c0.4,0.4,0.6,1.1,0.6,2.2c0,1.1-0.4,2-1.2,2.8c-0.8,0.8-1.7,1.2-2.8,1.2
		c-1.1,0-2-0.4-2.8-1.2c-0.8-0.8-1.2-1.7-1.2-2.8c0-1,0.4-2,1.2-2.7c0.8-0.8,1.7-1.2,2.8-1.2C835.4,109.8,836.4,110.2,837.2,111z
		 M843.3,142.7c0,1.4-0.3,2.5-0.9,3.1c-0.6,0.6-1.6,1-3.1,1c-2.6,0-4.6-0.7-6-2.1c-1.4-1.4-2.1-3.5-2.1-6.2l-0.1-18.2l1.9,0
		c3.2,0,4.8,1.6,4.8,5l0.1,12.6c0,1.3,0.3,2.2,0.9,2.8c0.6,0.5,1.7,0.8,3.2,0.8l1.3,0L843.3,142.7z"/>
	<path class="st7" d="M851.1,135.5l-0.1-1.3c-0.1-2.5,0.7-5.2,2.9-7.8c1.6-1.9,2.9-3.6,2.9-5.3s-1.2-2.9-3.6-2.9
		c-1.7,0-3.6,0.6-5,1.5l-1.7-5.4c1.8-1.1,4.7-2.1,8.3-2.1c6.6,0,9.6,3.6,9.6,7.7c0,3.9-2.4,6.3-4.3,8.5c-1.8,2-2.6,4-2.5,6.2l0,0.9
		L851.1,135.5z M854.3,147c-2.7,0-4.5-1.9-4.5-4.5c0-2.7,1.8-4.6,4.4-4.6c2.7,0,4.5,1.8,4.5,4.5C858.8,145,857.1,147,854.3,147
		L854.3,147z"/>
</g>
<path class="st7" d="M724.4,56.9l4.4,7.2h-3.2l-6.1-7.2H724.4z"/>
<g>
	
		<linearGradient id="SVGID_11_" gradientUnits="userSpaceOnUse" x1="305.208" y1="207.5186" x2="323.2817" y2="207.5186" gradientTransform="matrix(1 -3.400000e-03 4.200000e-03 1.2352 -59.5444 -38.6182)">
		<stop  offset="0" style="stop-color:#878787"/>
		<stop  offset="0.3534" style="stop-color:#FAFAFA"/>
		<stop  offset="0.4438" style="stop-color:#E9E9E9"/>
		<stop  offset="0.8438" style="stop-color:#9D9D9C"/>
	</linearGradient>
	<polygon class="st29" points="264.9,299.6 246.8,299.6 246.3,133.7 264.3,133.6 	"/>
</g>
<g>
	<g>
		
			<linearGradient id="SVGID_12_" gradientUnits="userSpaceOnUse" x1="303.0435" y1="253.5078" x2="313.1953" y2="253.5078" gradientTransform="matrix(0.9999 1.040000e-02 -1.040000e-02 0.9999 8.3721 4.8809)">
			<stop  offset="0" style="stop-color:#878787"/>
			<stop  offset="0.3534" style="stop-color:#FAFAFA"/>
			<stop  offset="0.4438" style="stop-color:#E9E9E9"/>
			<stop  offset="0.8438" style="stop-color:#9D9D9C"/>
		</linearGradient>
		<polygon class="st30" points="318.5,299.3 308.4,299.2 309.1,223.8 319.3,223.9 		"/>
	</g>
	<g>
		<defs>
			<circle id="SVGID_13_" cx="314.8" cy="190.3" r="37.8"/>
		</defs>
		<clipPath id="SVGID_14_">
			<use xlink:href="#SVGID_13_"  style="overflow:visible;"/>
		</clipPath>
		<g class="st33">
			<path class="st21" d="M314.9,231.8c-13.5,0-27,0-40.4,0c-0.9,0-1-0.2-1-1c0-27,0-53.9,0-80.9c0-0.9,0.2-1,1-1c27,0,53.9,0,80.9,0
				c0.9,0,1,0.2,1,1c0,27,0,53.9,0,80.9c0,0.9-0.2,1-1,1C341.9,231.7,328.4,231.8,314.9,231.8z M354.1,190.3
				c0-21.7-17.6-39.3-39.2-39.4c-21.7,0-39.4,17.7-39.4,39.3c0,21.6,17.6,39.3,39.1,39.3C336.5,229.5,354.1,212,354.1,190.3z"/>
			<path class="st34" d="M354.1,190.3c0,21.8-17.6,39.3-39.5,39.3c-21.5,0-39.1-17.7-39.1-39.3c0-21.6,17.8-39.3,39.4-39.3
				C336.5,150.9,354.1,168.6,354.1,190.3z M323.5,167.2c0-3.4-0.8-5.8-2.1-7.2c-1.7-2-4.3-1.7-5.5,0.7c-0.3,0.6-0.4,1.2-0.5,1.8
				c-0.7,3.9-2,7.6-3.8,11.2c-1.8,3.5-4.3,6.5-6.9,9.5c-1.7,2-2.4,4.2-2,6.8c0.3,2.2,0.6,4.3,0.9,6.5c0.4,3.7,0.6,7.4,1.1,11.1
				c0.4,2.9,1.9,3.6,4.7,3.3c7.8-1,15.6-2,23.4-3c1.2-0.2,2.6-0.2,3.7-0.6c2.4-0.9,2.9-3.6,1-6c-0.5-0.7-0.5-1.1,0.1-1.7
				c1.6-1.9,1.5-3.8-0.2-5.6c-0.4-0.4-0.5-0.5-0.1-1.1c1.8-1.9,1.8-3.8,0.1-5.7c-0.7-0.8-0.6-1.2,0.1-1.9c1.8-2.1,1.3-4.4-1.2-5.7
				c-0.8-0.4-1.6-0.6-2.5-0.7c-1.6-0.1-3.2,0.2-4.8,0.4c-2.5,0.4-5.1,0.9-7.6,1.2c-1.7,0.2-2.5-1-1.7-2.6c0.2-0.3,0.4-0.6,0.6-1
				C321.9,173.4,323.2,170,323.5,167.2z M288.5,191.1c0,0.1,0,0.3,0.1,0.6c0.6,5.3,1.2,10.6,1.8,15.9c0.4,3.6,3.4,6.2,6.8,5.8
				c3.6-0.4,6-3.3,5.6-7c-0.6-5.4-1.2-10.9-1.8-16.3c-0.4-3.3-3.3-5.7-6.6-5.5C291,184.7,288.5,187.5,288.5,191.1z"/>
			<path class="st24" d="M323.5,167.2c-0.3,2.8-1.6,6.2-3.3,9.5c-0.2,0.3-0.4,0.6-0.6,1c-0.8,1.6,0,2.8,1.7,2.6
				c2.5-0.3,5.1-0.8,7.6-1.2c1.6-0.2,3.2-0.5,4.8-0.4c0.9,0,1.7,0.2,2.5,0.7c2.5,1.3,3,3.6,1.2,5.7c-0.6,0.7-0.8,1.1-0.1,1.9
				c1.7,1.9,1.7,3.8-0.1,5.7c-0.5,0.5-0.3,0.7,0.1,1.1c1.7,1.9,1.8,3.8,0.2,5.6c-0.6,0.7-0.6,1-0.1,1.7c1.9,2.4,1.4,5.1-1,6
				c-1.1,0.4-2.5,0.5-3.7,0.6c-7.8,1-15.6,2-23.4,3c-2.8,0.4-4.3-0.3-4.7-3.3c-0.5-3.7-0.7-7.4-1.1-11.1c-0.3-2.2-0.5-4.3-0.9-6.5
				c-0.4-2.6,0.3-4.8,2-6.8c2.6-2.9,5.1-6,6.9-9.5c1.8-3.5,3.2-7.2,3.8-11.2c0.1-0.6,0.3-1.2,0.5-1.8c1.2-2.4,3.7-2.7,5.5-0.7
				C322.7,161.4,323.5,163.8,323.5,167.2z"/>
			<path class="st24" d="M288.5,191.1c0-3.6,2.5-6.4,5.9-6.6c3.3-0.2,6.2,2.2,6.6,5.5c0.6,5.4,1.3,10.9,1.8,16.3
				c0.4,3.7-2,6.7-5.6,7c-3.4,0.3-6.4-2.2-6.8-5.8c-0.6-5.3-1.2-10.6-1.8-15.9C288.5,191.4,288.5,191.1,288.5,191.1z"/>
		</g>
	</g>
	<circle class="st8" cx="314.4" cy="190.3" r="38.2"/>
</g>
<g>
	
		<linearGradient id="SVGID_15_" gradientUnits="userSpaceOnUse" x1="247.2056" y1="262.8516" x2="258.6909" y2="262.8516" gradientTransform="matrix(0.9951 9.869999e-02 -9.869999e-02 0.9951 -15.02 -27.1035)">
		<stop  offset="0" style="stop-color:#878787"/>
		<stop  offset="0.3534" style="stop-color:#FAFAFA"/>
		<stop  offset="0.4438" style="stop-color:#E9E9E9"/>
		<stop  offset="0.8438" style="stop-color:#9D9D9C"/>
	</linearGradient>
	<polygon class="st31" points="212.5,300 200.9,300 209.3,217.7 220.5,218.9 	"/>
	<circle class="st3" cx="221.9" cy="191.6" r="41.5"/>
	<path class="st22" d="M218.5,217.6c5.5-2,10.8-4.2,15.7-7.2c2.9-1.8,5.7-3.6,8.3-5.7c2-1.7,4-3.7,5.6-5.8c4.9-6.6,4.2-16-1-22.3
		c-6.2-7.5-18.3-4.6-23.5,2.6l0,0c-3.2-8.4-14.1-14.3-22-8.7c-6.6,4.7-9.7,13.6-6.7,21.2c1,2.4,2.4,4.9,3.9,7c2,2.7,4.2,5.2,6.5,7.7
		C209.2,210.8,213.8,214.3,218.5,217.6"/>
</g>
<g>
	<g>
		<g>
			<path class="st27" d="M104,150c0,3.9-3.2,7-7,7H21.8c-3.9,0-7-3.2-7-7V74.7c0-3.9,3.2-7,7-7H97c3.9,0,7,3.2,7,7V150z"/>
		</g>
		<g>
			<path class="st25" d="M97,157.1H21.8c-3.9,0-7.1-3.2-7.1-7.1V74.7c0-3.9,3.2-7.1,7.1-7.1H97c3.9,0,7.1,3.2,7.1,7.1V150
				C104.1,153.9,100.9,157.1,97,157.1z M21.8,67.9c-3.8,0-6.9,3.1-6.9,6.9V150c0,3.8,3.1,6.9,6.9,6.9H97c3.8,0,6.9-3.1,6.9-6.9V74.7
				c0-3.8-3.1-6.9-6.9-6.9H21.8z"/>
		</g>
	</g>
	<g>
		<path class="st25" d="M90.6,96.1V84.6c0-0.2-6.3-0.6-6.7-0.6c-3.6-0.1-8.4,0.1-11.7,1.8c-3.4,1.7-6.2,5.9-7.2,9.5
			c-1,3.5-0.8,15.4-0.8,15.4H52.8v13.2h11.3v32.9h13.3v-32.9h11.3l1.9-13.2H77.4c0-3,0-6,0.3-9C78.4,95.2,85.6,95.7,90.6,96.1z"/>
	</g>
	<g>
		<path class="st8" d="M85.9,94.4"/>
	</g>
</g>
<g>
	<g>
		<circle class="st11" cx="255.7" cy="79.8" r="58.1"/>
		<path class="st22" d="M255.7,138.2c-15.6,0-30.3-6.1-41.3-17.1c-11-11-17.1-25.7-17.1-41.3s6.1-30.3,17.1-41.3
			c11-11,25.7-17.1,41.3-17.1c15.6,0,30.3,6.1,41.3,17.1c11,11,17.1,25.7,17.1,41.3s-6.1,30.3-17.1,41.3
			C286,132.1,271.3,138.2,255.7,138.2z M255.7,22c-15.4,0-30,6-40.9,16.9c-10.9,10.9-16.9,25.4-16.9,40.9s6,30,16.9,40.9
			c10.9,10.9,25.4,16.9,40.9,16.9c15.4,0,30-6,40.9-16.9c10.9-10.9,16.9-25.4,16.9-40.9s-6-30-16.9-40.9C285.6,28,271.1,22,255.7,22
			z"/>
	</g>
	<g>
		<g id="XMLID_1_">
			<g>
				<polygon class="st5" points="253.3,98.6 243.6,108.6 242.3,107.5 				"/>
				<polygon class="st5" points="253.3,98.6 242.3,107.5 243.6,91.4 				"/>
				<path class="st2" d="M273.8,63.3l-30.2,28.2l-9-4.2l37.5-24.3C273.8,62,273.8,63.3,273.8,63.3z"/>
				<polygon class="st2" points="243.6,91.4 242.3,107.5 240.5,106.4 234.7,87.2 				"/>
				<path class="st22" d="M220.4,77.1l63-25c0,0,4,0,2.9,4.2l-12.1,53.8c0,0-0.7,1.8-4,0.9l-16.8-12.4l-9.7-7.2l30.2-28.2
					c0,0,0-1.3-1.6-0.4l-37.5,24.3L217,80.5C217,80.5,216.9,78.7,220.4,77.1z"/>
			</g>
			<g>
			</g>
		</g>
	</g>
</g>
<g>
	<g>
		<circle class="st32" cx="469" cy="88.2" r="53.4"/>
		<path class="st22" d="M469,142c-14.4,0-27.9-5.6-38-15.8c-10.2-10.2-15.8-23.7-15.8-38s5.6-27.9,15.8-38
			c10.2-10.2,23.7-15.8,38-15.8c14.4,0,27.9,5.6,38,15.8c10.2,10.2,15.8,23.7,15.8,38s-5.6,27.9-15.8,38
			C496.9,136.4,483.4,142,469,142z M469,35.1c-29.3,0-53.1,23.8-53.1,53.1c0,29.3,23.8,53,53.1,53c29.3,0,53-23.8,53-53
			C522.1,58.9,498.3,35.1,469,35.1z"/>
	</g>
	<g>
		<g>
			<path class="st22" d="M435.8,112.5c14.6,0.8,20.5-5.9,20.5-5.9c-12.7-2.6-12.9-10.6-12.9-10.6c2.5,1.1,6.2,0,6.2,0
				c-11.8-3.3-11.3-14.6-11.3-14.6c2.1,1.9,6.2,1.9,6.2,1.9c-10.7-7.6-4.2-19.2-4.2-19.2c14.6,16,30,15,30,15
				c-0.4-1.3-0.6-2.7-0.6-4.2c0-7.7,6.2-13.9,13.9-13.9c4.3,0,8.1,2,10.7,5c4-0.5,9.3-3.5,9.3-3.5c0.2,3.3-5.9,7.8-5.9,7.8
				c2.9-0.1,7.8-2,7.8-2c-1.6,3.5-7.4,7.3-7.4,7.3c0.7,3.7-0.1,7.7-0.9,11.3c-0.8,3.8-2,7.5-3.7,11c-4.5,9-13,15.6-22.3,18.9
				C457.9,121.5,444.4,119.5,435.8,112.5"/>
		</g>
	</g>
</g>
<g>
	<g>
		<circle class="st23" cx="364.1" cy="105.2" r="49.4"/>
		<path class="st22" d="M364.1,155.2c-13.4,0-25.9-5.2-35.3-14.6c-9.4-9.4-14.6-22-14.6-35.3s5.2-25.9,14.6-35.3
			c9.4-9.4,22-14.6,35.3-14.6s25.9,5.2,35.3,14.6s14.6,22,14.6,35.3c0,13.4-5.2,25.9-14.6,35.3S377.5,155.2,364.1,155.2z
			 M364.1,56.3c-13.1,0-25.3,5.1-34.6,14.3c-9.2,9.2-14.3,21.5-14.3,34.6c0,13.1,5.1,25.3,14.3,34.6c9.2,9.2,21.5,14.3,34.6,14.3
			c13.1,0,25.3-5.1,34.6-14.3c9.2-9.2,14.3-21.5,14.3-34.6c0-13.1-5.1-25.3-14.3-34.6S377.2,56.3,364.1,56.3z"/>
	</g>
	<g>
		<path class="st22" d="M350.9,110.1c-0.5-1.1-1.7-1.9-2.4-2.9c-2.3-2.9-3.6-6.5-3.6-10.2c0-5.4,2.8-10.8,7-14.1
			c1.4-1.1,2.9-2,4.5-2.6c5.5-2.1,13.3-3,18.4,0.6c9.2,6.5,8.2,23.6,1.4,31.5c-1.5,1.7-4.2,3-6.6,2.4c-1.8-0.5-4.3-3.5-4-5.5
			c4.1-24.6-5-21.7-6-21.7c-7.5,2.1-8,9.1-5.6,15.4c0.7,1.9,1.4,3.7,1.5,5.6c0.2,3.4-0.4,6.9-0.5,10.3c-0.1,3.7,0,7.4,0,11.1
			c0.1,3.8,0.8,7.3,1.9,10.9c0.3,1.1,0.8,3.9,2.3,3c1.8-1.1,2.3-5.3,2.9-7.2c1.6-5.7,2-11,2.2-16.8c0-0.5,0.2-1.3,0.1-1.8
			c0,0,0.5,2.4,5.9,3.3c5.4,0.9,10.5-2.4,13.9-5.7c4.8-4.5,7.1-11.9,7.1-18.7c0-3.2-0.6-6.7-1.5-9.8C386.7,75.9,375.5,71,364.3,71
			c-3.7,0-7.3,0.9-10.7,2.2c-2.4,0.9-4.6,2.2-6.6,3.8c-6.1,4.8-10.2,12.5-10.2,20.2c0,7.4,3.6,14.1,9.2,18.6c3.6,2.9,5.2-2.1,5-4.9
			C351.1,110.6,351,110.4,350.9,110.1z"/>
	</g>
</g>
</svg>
