<?xml version="1.0" encoding="utf-8"?>
<!-- Generator: Adobe Illustrator 16.0.0, SVG Export Plug-In . SVG Version: 6.00 Build 0)  -->
<!DOCTYPE svg PUBLIC "-//W3C//DTD SVG 1.1//EN" "http://www.w3.org/Graphics/SVG/1.1/DTD/svg11.dtd">
<svg version="1.1" id="Layer_1" xmlns="http://www.w3.org/2000/svg" xmlns:xlink="http://www.w3.org/1999/xlink" x="0px" y="0px"
	 width="100px" height="40px" viewBox="0 0 100 40" style="enable-background:new 0 0 100 40;" xml:space="preserve">
<style type="text/css">
<![CDATA[
	.st0{fill:#1C8F3B;}
	.st1{fill:#1F2248;}
	.st2{fill:#FFFFFF;}
	.st3{fill:#008D36;}
]]>
</style>
<g>
	<path class="st1" d="M97.8,24c0.2,1.3-0.2,2.2-1.2,2.8c-1,0.6-2.7,1.1-5.2,1.4l-2.4,0.3c0.2,0.9,0.8,1.5,1.6,1.9
		c0.8,0.4,1.8,0.6,2.9,0.5c2-0.2,3.4-0.9,4.3-1.8l0.1,0l0.1,1.1c0.3,2.1-1.4,3.4-4.9,3.8c-1.9,0.2-3.7-0.2-5.3-1.4
		c-1.6-1.1-2.6-2.7-2.9-4.8c-0.3-2.3,0.1-4.2,1.3-5.8c1.1-1.5,2.8-2.4,4.9-2.7c1.6-0.2,3.1,0.1,4.3,1C96.8,21.1,97.5,22.4,97.8,24z
		 M94.3,23.9c-0.1-0.7-0.4-1.2-0.9-1.5c-0.5-0.3-1.3-0.4-2.1-0.3c-0.9,0.1-1.5,0.5-2,1.1c-0.5,0.7-0.7,1.4-0.6,2.2l0,0.5l1.6-0.2
		c1.7-0.2,2.8-0.4,3.4-0.7C94.1,24.8,94.3,24.4,94.3,23.9z"/>
	<path class="st2" d="M92.2,34.3c-1.6,0-3.2-0.5-4.6-1.5c-1.7-1.2-2.7-2.9-3-5c-0.3-2.4,0.1-4.4,1.3-6c1.2-1.6,2.9-2.6,5.2-2.8
		c1.7-0.2,3.2,0.2,4.6,1.1c1.4,0.9,2.2,2.3,2.4,4c0.2,1.4-0.3,2.5-1.4,3.2c-1.1,0.7-2.8,1.1-5.3,1.4l-1.9,0.2c0.3,0.5,0.7,1,1.3,1.3
		c0.6,0.3,1.3,0.5,2,0.5l0,0c0.2,0,0.4,0,0.7,0c1.9-0.2,3.3-0.8,4.1-1.7l0.1-0.1l0.6-0.1l0.2,1.4c0.1,0.9-0.1,1.7-0.6,2.3
		c-0.8,1-2.3,1.6-4.7,1.9C92.8,34.3,92.5,34.3,92.2,34.3z M92,19.5c-0.3,0-0.5,0-0.8,0c-2.1,0.2-3.6,1.1-4.7,2.5
		c-1.1,1.5-1.5,3.3-1.2,5.5c0.3,1.9,1.2,3.5,2.7,4.6c1.5,1.1,3.2,1.5,5.1,1.3c2.1-0.2,3.5-0.8,4.2-1.6c0.4-0.5,0.5-1,0.4-1.7
		l-0.1-0.5c-1,0.8-2.3,1.3-4.1,1.6c-0.3,0-0.5,0-0.8,0l0,0c-0.9,0-1.7-0.2-2.3-0.6c-0.9-0.5-1.5-1.2-1.8-2.1l-0.1-0.4l2.8-0.3
		c2.4-0.3,4.1-0.7,5.1-1.3c0.9-0.5,1.2-1.4,1.1-2.5c-0.2-1.5-0.9-2.7-2.1-3.5C94.3,19.9,93.2,19.5,92,19.5z M88.2,26.4l-0.1-0.8
		c-0.1-0.9,0.2-1.7,0.7-2.5c0.6-0.7,1.3-1.1,2.3-1.3c0.9-0.1,1.7,0,2.3,0.3c0.6,0.4,1,0.9,1.1,1.8c0.1,0.7-0.2,1.2-0.9,1.5
		c-0.6,0.3-1.7,0.5-3.5,0.7L88.2,26.4z M91.8,22.5c-0.2,0-0.4,0-0.6,0c-0.8,0.1-1.4,0.4-1.8,1c-0.4,0.6-0.6,1.2-0.6,2l0,0.1l1.3-0.1
		c2.1-0.2,2.9-0.5,3.3-0.7c0.5-0.2,0.5-0.5,0.5-0.8c-0.1-0.6-0.3-1-0.8-1.2C92.8,22.6,92.4,22.5,91.8,22.5z"/>
</g>
<g>
	<path class="st1" d="M17.5,28.4c0,2-0.6,3.5-1.9,4.7c-1.3,1.2-3.1,1.7-5.4,1.7c-1.9,0-3.4-0.3-4.4-1c-1-0.7-1.5-1.6-1.5-2.8v-1.7
		h0.1c1.6,1.4,3.4,2.1,5.5,2.1c1.4,0,2.4-0.2,3-0.7c0.6-0.4,0.9-1.1,0.9-1.9c0-0.7-0.3-1.3-0.8-1.6c-0.6-0.4-1.8-0.8-3.8-1.2
		c-3.5-0.7-5.2-2.4-5.2-5c0-1.7,0.7-3.2,2-4.4c1.3-1.3,3.1-1.9,5.3-1.9c2.1,0,3.6,0.3,4.5,1c0.9,0.7,1.4,1.5,1.4,2.5v1.8h-0.1
		c-1.2-1.3-2.9-1.9-5.1-1.9c-2.8,0-4.1,0.8-4.1,2.5c0,0.6,0.3,1.1,1,1.5c0.6,0.4,1.8,0.8,3.6,1.2C15.7,23.9,17.5,25.6,17.5,28.4z"/>
	<path class="st2" d="M10.1,35.3c-2,0-3.6-0.4-4.7-1.1c-1.2-0.8-1.8-1.9-1.8-3.2v-2.2h0.7l0.1,0.1c1.5,1.3,3.2,2,5.1,2
		c1.3,0,2.2-0.2,2.7-0.6c0.5-0.3,0.7-0.8,0.7-1.5c0-0.6-0.2-0.9-0.6-1.2c-0.5-0.3-1.7-0.7-3.6-1.1c-3.7-0.8-5.6-2.6-5.6-5.5
		c0-1.8,0.7-3.5,2.2-4.8c1.4-1.3,3.3-2,5.6-2c2.2,0,3.8,0.4,4.8,1.1c1,0.8,1.6,1.8,1.6,2.9v2.3h-0.8l-0.1-0.2
		c-1.1-1.2-2.7-1.8-4.7-1.8c-3.7,0-3.7,1.5-3.7,2c0,0.4,0.2,0.8,0.7,1.1c0.4,0.3,1.3,0.6,3.4,1.1c3.8,0.8,5.7,2.7,5.7,5.7
		c0,2.1-0.7,3.8-2.1,5C14.5,34.6,12.6,35.3,10.1,35.3z M4.6,30.1v0.8c0,1,0.4,1.8,1.3,2.4c0.9,0.6,2.3,1,4.1,1
		c2.2,0,3.9-0.5,5.1-1.6c1.2-1.1,1.8-2.5,1.8-4.3c0-2.5-1.6-4.1-4.9-4.8c-1.8-0.4-3.1-0.8-3.8-1.2c-1-0.6-1.2-1.4-1.2-1.9
		c0-1.4,0.8-3,4.6-3c1.9,0,3.5,0.5,4.7,1.4v-0.8c0-0.8-0.4-1.5-1.2-2.1C14.4,15.3,13,15,11,15c-2.1,0-3.7,0.6-5,1.8
		c-1.3,1.2-1.9,2.5-1.9,4.1c0,2.4,1.6,3.9,4.8,4.6c2.1,0.4,3.4,0.8,4,1.3c0.7,0.5,1.1,1.2,1.1,2c0,1-0.4,1.8-1.1,2.3
		c-0.7,0.5-1.8,0.7-3.3,0.7C7.8,31.8,6.1,31.2,4.6,30.1z"/>
</g>
<g>
	<path class="st1" d="M39.7,32.3c0,0.8-0.2,1.4-0.5,1.8c-0.3,0.4-0.9,0.5-1.8,0.5c-1.5,0-2.6-0.4-3.4-1.2c-0.8-0.8-1.2-2-1.2-3.6
		V19.4h1.1c1.8,0,2.7,0.9,2.7,2.8v7.2c0,0.8,0.2,1.3,0.5,1.6c0.3,0.3,1,0.4,1.8,0.4h0.7V32.3z"/>
	<path class="st2" d="M37.4,35.1c-1.6,0-2.9-0.5-3.8-1.4c-0.9-0.9-1.3-2.2-1.3-3.9V18.9h1.6c2.1,0,3.2,1.1,3.2,3.3v7.2
		c0,0.6,0.1,1,0.4,1.2C37.6,30.8,38,31,39,31h1.2v1.3c0,0.9-0.2,1.6-0.7,2.1C39.1,34.8,38.4,35.1,37.4,35.1z M33.3,19.9v9.9
		c0,1.4,0.3,2.5,1,3.2c0.7,0.7,1.7,1.1,3.1,1.1c0.7,0,1.2-0.1,1.4-0.4c0.3-0.3,0.4-0.8,0.4-1.4v-0.3H39c-1,0-1.7-0.2-2.1-0.6
		c-0.5-0.4-0.7-1-0.7-1.9v-7.2c0-1.6-0.7-2.4-2.3-2.4H33.3z"/>
</g>
<g>
	<path class="st1" d="M62.7,34.5h-0.9c-1,0-1.7-0.2-2.1-0.7c-0.4-0.4-0.7-1.1-0.7-2v-5.7c0-1.2-0.2-2-0.7-2.6
		c-0.5-0.6-1.1-0.8-2-0.8c-0.8,0-1.4,0.3-1.8,0.8c-0.5,0.5-0.7,1.3-0.7,2.3v8.7h-1c-0.8,0-1.5-0.2-1.9-0.7c-0.5-0.5-0.7-1.1-0.7-2
		v-5.7c0-1.2-0.2-2-0.7-2.6c-0.5-0.6-1.2-0.8-2-0.8c-0.7,0-1.3,0.3-1.8,0.8c-0.5,0.6-0.7,1.3-0.7,2.3v8.6h-1c-0.8,0-1.4-0.2-1.9-0.7
		c-0.5-0.5-0.8-1.1-0.8-1.9v-5.7c0-2.1,0.5-3.7,1.6-4.9c1.1-1.2,2.7-1.8,4.9-1.8c1.8,0,3.3,0.8,4.5,2.3c0.4-0.7,1-1.2,1.8-1.7
		c0.8-0.4,1.6-0.6,2.4-0.6c1.8,0,3.2,0.5,4.4,1.6c1.1,1.1,1.7,2.6,1.7,4.6V34.5z"/>
	<path class="st2" d="M63.2,35h-1.4c-1.1,0-1.9-0.3-2.5-0.8c-0.5-0.5-0.8-1.3-0.8-2.3v-5.7c0-1-0.2-1.8-0.6-2.3
		c-0.4-0.5-0.9-0.7-1.6-0.7c-0.6,0-1.1,0.2-1.4,0.6c-0.4,0.4-0.6,1.1-0.6,2V35h-1.5c-0.9,0-1.7-0.3-2.3-0.8
		c-0.6-0.6-0.9-1.3-0.9-2.3v-5.7c0-1-0.2-1.8-0.6-2.3c-0.4-0.5-0.9-0.7-1.6-0.7c-0.6,0-1,0.2-1.4,0.7c-0.4,0.5-0.6,1.1-0.6,2V35
		h-1.5c-0.9,0-1.6-0.3-2.2-0.9c-0.6-0.6-0.9-1.3-0.9-2.3v-5.7c0-2.2,0.6-3.9,1.8-5.2c1.2-1.3,3-1.9,5.2-1.9c1.8,0,3.3,0.7,4.4,2
		c0.4-0.5,1-1,1.6-1.3c0.8-0.5,1.7-0.7,2.7-0.7c1.9,0,3.5,0.6,4.7,1.7c1.2,1.2,1.9,2.8,1.9,4.9V35z M56.3,22.3c1,0,1.8,0.3,2.3,1
		c0.5,0.7,0.8,1.6,0.8,2.9v5.7c0,0.8,0.2,1.3,0.5,1.7c0.3,0.3,0.9,0.5,1.8,0.5h0.4v-8.3c0-1.9-0.5-3.3-1.6-4.2
		c-1.1-1-2.4-1.5-4.1-1.5c-0.8,0-1.5,0.2-2.2,0.6c-0.7,0.4-1.2,0.9-1.6,1.5l-0.4,0.6L52,22.1C51,20.7,49.6,20,47.9,20
		c-2,0-3.5,0.5-4.5,1.6c-1,1.1-1.5,2.6-1.5,4.5v5.7c0,0.7,0.2,1.2,0.6,1.6c0.4,0.4,0.9,0.6,1.6,0.6h0.5v-8.2c0-1.1,0.3-2,0.8-2.6
		c0.6-0.7,1.3-1,2.1-1c1,0,1.8,0.3,2.4,1c0.6,0.7,0.8,1.6,0.8,2.9v5.7c0,0.7,0.2,1.3,0.6,1.6s0.9,0.6,1.6,0.6h0.5v-8.2
		c0-1.1,0.3-2,0.8-2.6C54.7,22.6,55.5,22.3,56.3,22.3z"/>
</g>
<g>
	<path class="st1" d="M77.7,26.7c0,2.4-0.6,4.4-1.7,5.9c-1.2,1.5-2.7,2.4-4.9,2.2c-0.6,0-2.4-0.6-3.3-1.2c-0.2-0.1-0.5,0-0.5,0.3
		l0.1,5.2h-1.1c-0.7,0-1.3-0.2-1.8-0.7c-0.5-0.5-0.8-1.1-0.8-1.8v-8.9c0-2.6,0.6-4.6,1.8-6c1.2-1.5,3-2.2,5.5-2.2
		c1.9,0,3.5,0.7,4.8,2.2C77.1,23.2,77.7,24.8,77.7,26.7z M74,27.7c0-1.7-0.3-3-0.8-3.8c-0.6-0.8-1.4-1.2-2.6-1.2
		c-1,0-1.8,0.4-2.3,1.2c-0.5,0.8-0.8,1.8-0.8,3.1c0,1.4,0.3,2.6,1,3.4c0.7,0.8,1.5,1.2,2.6,1.2c0.9,0,1.6-0.4,2.2-1.1
		C73.7,29.8,74,28.9,74,27.7z"/>
	<path class="st2" d="M67.9,39.6h-1.6c-0.8,0-1.5-0.3-2.1-0.8c-0.6-0.6-0.9-1.3-0.9-2.2v-8.9c0-2.7,0.6-4.8,1.9-6.3
		c1.3-1.6,3.3-2.4,5.9-2.4c2,0,3.7,0.8,5.1,2.3c1.4,1.5,2,3.3,2,5.4c0,2.5-0.6,4.6-1.8,6.2c-1.4,1.8-3.2,2.6-5.3,2.4
		c-0.6,0-2.2-0.6-3.3-1.2L67.9,39.6z M71.1,20c-2.3,0-4,0.7-5.2,2c-1.1,1.4-1.7,3.3-1.7,5.7v8.9c0,0.6,0.2,1.1,0.6,1.5
		c0.4,0.4,0.9,0.6,1.5,0.6H67l-0.1-4.7c0-0.2,0.1-0.4,0.2-0.6c0.3-0.3,0.7-0.3,1-0.1c0.9,0.6,2.6,1.1,3.1,1.1
		c1.8,0.1,3.3-0.5,4.5-2.1c1.1-1.4,1.6-3.3,1.6-5.6c0-1.8-0.6-3.4-1.8-4.7C74.3,20.7,72.8,20,71.1,20z M71,32.1
		c-1.3,0-2.3-0.5-3-1.4c-0.7-0.9-1.1-2.1-1.1-3.7c0-1.4,0.3-2.5,0.9-3.4c0.6-0.9,1.5-1.4,2.7-1.4c1.3,0,2.4,0.5,3,1.4
		c0.6,0.9,0.9,2.2,0.9,4c0,1.2-0.3,2.3-0.9,3.1C72.9,31.7,72,32.1,71,32.1z M70.5,23.2c-0.8,0-1.5,0.3-1.9,1
		c-0.5,0.7-0.7,1.7-0.7,2.8c0,1.3,0.3,2.4,0.9,3.1c0.6,0.7,1.3,1,2.3,1c0.7,0,1.3-0.3,1.8-0.9c0.5-0.6,0.7-1.5,0.7-2.5
		c0-1.6-0.3-2.8-0.8-3.5C72.3,23.5,71.5,23.2,70.5,23.2z"/>
</g>
<g>
	<path class="st1" d="M85.6,32.4c0,1.5-0.9,2.2-2.6,2.2c-1.6,0-2.8-0.4-3.6-1.2c-0.9-0.8-1.3-1.9-1.3-3.4v-15h1.1
		c0.9,0,1.6,0.2,2.1,0.7c0.5,0.4,0.7,1,0.7,1.8v12.2c0,0.7,0.2,1.2,0.6,1.5c0.4,0.3,1.1,0.4,2,0.4h1V32.4z"/>
	<path class="st2" d="M83,35.1c-1.7,0-3-0.4-4-1.3c-0.9-0.9-1.4-2.1-1.4-3.7V14.6h1.6c1,0,1.8,0.3,2.4,0.8c0.6,0.5,0.8,1.2,0.8,2.1
		v12.2c0,0.5,0.1,0.9,0.4,1.1c0.2,0.2,0.7,0.3,1.7,0.3H86v1.3C86,33.6,85.5,35.1,83,35.1z M78.6,15.6v14.5c0,1.3,0.4,2.3,1.1,3
		c0.7,0.7,1.8,1,3.3,1c1,0,2.1-0.2,2.1-1.7v-0.3h-0.5c-1,0-1.8-0.2-2.3-0.5c-0.5-0.4-0.8-1-0.8-1.9V17.5c0-0.6-0.2-1.1-0.5-1.4
		c-0.4-0.3-0.9-0.5-1.7-0.5H78.6z"/>
</g>
<g>
	<g>
		<g>
			<path class="st3" d="M40.8,9h-0.6c-0.8-2.2-3.1-3.9-5.8-3.9c-3.4,0-6.1,2.6-6.1,5.7c0,1.8,0.9,3.4,2.3,4.5v1.1
				c0,0.6,0.4,1.1,0.9,1.1h1.2c0.4,0,0.8-0.4,0.9-1c0.3,0,0.6,0.1,0.9,0.1c0.3,0,0.5,0,0.8,0c0.1,0.6,0.4,1,0.9,1h1.2
				c0.5,0,0.9-0.5,0.9-1.1v-1c0.9-0.6,1.6-1.5,2-2.4h0.7c0.5,0,1-0.5,1-1.1v-1.7C41.8,9.5,41.4,9,40.8,9z"/>
		</g>
	</g>
	<g>
		<g>
			<path class="st2" d="M40.8,9h-0.6c-0.8-2.2-3.1-3.9-5.8-3.9c-3.4,0-6.1,2.6-6.1,5.7c0,1.8,0.9,3.4,2.3,4.5v1.1
				c0,0.6,0.4,1.1,0.9,1.1h1.2c0.4,0,0.8-0.4,0.9-1c0.3,0,0.6,0.1,0.9,0.1c0.3,0,0.5,0,0.8,0c0.1,0.6,0.4,1,0.9,1h1.2
				c0.5,0,0.9-0.5,0.9-1.1v-1c0.9-0.6,1.6-1.5,2-2.4h0.7c0.5,0,1-0.5,1-1.1v-1.7C41.8,9.5,41.4,9,40.8,9z"/>
		</g>
	</g>
	<g>
		<g>
			<path class="st1" d="M37.3,18h-1.2c-0.5,0-1-0.4-1.2-1c-0.3,0-0.6,0-0.9,0c-0.2,0.6-0.7,1-1.2,1h-1.2c-0.7,0-1.4-0.7-1.4-1.6
				v-0.8c-1.5-1.2-2.3-2.9-2.3-4.7c0-3.4,3-6.2,6.6-6.2c2.7,0,5.1,1.5,6.1,3.9h0.2c0.8,0,1.5,0.7,1.5,1.6v1.7c0,0.9-0.7,1.6-1.5,1.6
				h-0.4c-0.4,0.8-1,1.6-1.8,2.2v0.7C38.6,17.3,38,18,37.3,18z M35.6,16l0,0.5c0,0.3,0.2,0.6,0.4,0.6h1.2c0.2,0,0.4-0.3,0.4-0.7
				v-1.2l0.2-0.1c0.8-0.6,1.4-1.3,1.8-2.2l0.1-0.3h1c0.3,0,0.5-0.3,0.5-0.7v-1.7c0-0.4-0.2-0.7-0.5-0.7h-0.9l-0.1-0.3
				C39,7,36.9,5.6,34.4,5.6c-3.1,0-5.7,2.4-5.7,5.2c0,1.6,0.8,3.1,2.1,4.1l0.2,0.1v1.3c0,0.4,0.2,0.7,0.4,0.7h1.2
				c0.2,0,0.4-0.2,0.4-0.6l0-0.5l0.5,0.1c0.5,0.1,1,0.1,1.5,0L35.6,16z"/>
		</g>
	</g>
</g>
<g>
	<g>
		<circle class="st0" cx="33.9" cy="3.4" r="2.5"/>
		<path class="st2" d="M33.9,6.3C32.3,6.3,31,5,31,3.4s1.3-2.9,2.9-2.9c1.6,0,2.9,1.3,2.9,2.9S35.5,6.3,33.9,6.3z M33.9,1.4
			c-1.1,0-2,0.9-2,2c0,1.1,0.9,2,2,2c1.1,0,2-0.9,2-2C35.9,2.3,35,1.4,33.9,1.4z"/>
	</g>
</g>
<g>
	<path class="st1" d="M19.3,15.1l0,17.7c0,0,0.4,1.6,2.7,1.2V16.6C22,16.6,21.7,14.8,19.3,15.1z"/>
</g>
<g>
	<path class="st0" d="M22.9,26.6c0,0,4.5-5.5,4.5-5.5s0.9-1.3,3.7-0.9l-5.3,6.2c0,0,4.3,5.9,6.3,6.4c0.1,0-0.3,0.5-0.3,0.5
		c-0.7,0.8-1.9,0.6-2.7,0.1c-0.2-0.1-0.5-0.3-0.7-0.5c-0.5-0.4-0.8-0.8-1.2-1.3c-1.1-1.3-2.3-2.7-3.4-4.1
		C23.7,27.6,22.9,26.7,22.9,26.6z"/>
</g>
</svg>
