<svg xmlns="http://www.w3.org/2000/svg" viewBox="0 0 52.01 69.27"><defs><style>.cls-1{fill:#fff;}.cls-2{fill:#3d3838;}.cls-3{fill:none;stroke:#000;stroke-miterlimit:10;}.cls-4{fill:#d82525;}</style></defs><title>Risorsa 1</title><g id="Livello_2" data-name="Livello 2"><g id="Livello_1-2" data-name="Livello 1"><path d="M26,68.77a26.48,26.48,0,0,1-4.69-.43A25.5,25.5,0,0,1,19.1,18.72l.3-.09.8-4.29a2.12,2.12,0,0,1,2.09-1.74,2.58,2.58,0,0,1,.39,0l17.44,3.25a2.12,2.12,0,0,1,1.37.88,2.16,2.16,0,0,1,.34,1.6L41,22.66l.25.18A25.51,25.51,0,0,1,26,68.77Z"/><path class="cls-1" d="M22.29,13.1a1.53,1.53,0,0,1,.3,0L40,16.38a1.61,1.61,0,0,1,1.3,1.9l-.74,4-.11.61.5.37A25,25,0,0,1,26,68.27,25,25,0,0,1,1.43,38.69,24.84,24.84,0,0,1,19.24,19.2l.59-.17.12-.61.74-4a1.62,1.62,0,0,1,1.6-1.33m0-1a2.63,2.63,0,0,0-2.58,2.15l-.75,4a26,26,0,1,0,22.62,4.2l.74-4a2.64,2.64,0,0,0-2.1-3.07L22.77,12.15a2.61,2.61,0,0,0-.48-.05Z"/><path class="cls-2" d="M9,54.2a19.11,19.11,0,0,1,6.77-27.68C9.31,33.86,7.45,43.27,9,54.2Z"/><path class="cls-2" d="M22,18.55l.54-2.94a.46.46,0,0,1,.54-.36L27,16s0,.05,0,.05a4.59,4.59,0,0,0-4.86,2.55C22.05,18.65,21.94,18.62,22,18.55Z"/><path class="cls-3" d="M31.57,16.83A7.5,7.5,0,0,1,32.38,13c2.68-4.88,11.92-.26,11.31-8.13"/><path class="cls-4" d="M43.61,2.46a3.05,3.05,0,0,1-.28-1.23A3,3,0,0,1,43.55,0a2.68,2.68,0,0,1,.28,1.22A2.89,2.89,0,0,1,43.61,2.46Z"/><path class="cls-4" d="M44.68,3.54a3.22,3.22,0,0,1,1.22-.28,3,3,0,0,1,1.24.22,2.71,2.71,0,0,1-1.22.28A2.89,2.89,0,0,1,44.68,3.54Z"/><path class="cls-4" d="M39.89,3.82a3.13,3.13,0,0,1,2.45-.06,3.13,3.13,0,0,1-2.45.06Z"/></g></g></svg>